<svg width="908" height="176" viewBox="0 0 908 176" fill="none" xmlns="http://www.w3.org/2000/svg">
<g filter="url(#filter0_d)">
<rect x="4" y="64" width="116" height="104" rx="20" fill="#6C63FF"/>
</g>
<path d="M56.674 22.65V19.35H63.024V37H59.324V22.65H56.674Z" fill="#2B303A"/>
<path d="M185.345 34.225C190.995 30.3083 193.82 27.0583 193.82 24.475C193.82 23.6917 193.628 23.075 193.245 22.625C192.878 22.175 192.295 21.95 191.495 21.95C189.845 21.95 188.97 23.075 188.87 25.325H185.445C185.545 23.2417 186.178 21.6667 187.345 20.6C188.512 19.5167 189.987 18.975 191.77 18.975C193.587 18.975 194.978 19.45 195.945 20.4C196.928 21.3333 197.42 22.5833 197.42 24.15C197.42 25.3833 197.053 26.625 196.32 27.875C195.603 29.1083 194.687 30.25 193.57 31.3C192.453 32.3333 191.278 33.225 190.045 33.975H197.77V36.85H185.345V34.225Z" fill="#2B303A"/>
<path d="M324.542 18.675C325.742 18.675 326.767 18.8833 327.617 19.3C328.484 19.7167 329.134 20.2917 329.567 21.025C330.017 21.7583 330.242 22.575 330.242 23.475C330.242 24.6083 329.934 25.5417 329.317 26.275C328.7 26.9917 327.884 27.4333 326.867 27.6V27.725C329.334 28.4583 330.567 29.9083 330.567 32.075C330.567 33.5917 330.059 34.825 329.042 35.775C328.025 36.7083 326.592 37.175 324.742 37.175C322.775 37.175 321.209 36.6917 320.042 35.725C318.875 34.7417 318.225 33.2667 318.092 31.3H321.542C321.625 32.2 321.917 32.9167 322.417 33.45C322.934 33.9667 323.659 34.225 324.592 34.225C325.392 34.225 326.017 34.0083 326.467 33.575C326.917 33.125 327.142 32.5417 327.142 31.825C327.142 30.975 326.817 30.325 326.167 29.875C325.517 29.425 324.559 29.2 323.292 29.2H322.567V26.325H323.292C325.625 26.3583 326.792 25.55 326.792 23.9C326.792 23.1833 326.584 22.625 326.167 22.225C325.75 21.8083 325.184 21.6 324.467 21.6C323.717 21.6 323.1 21.8417 322.617 22.325C322.134 22.7917 321.859 23.45 321.792 24.3H318.342C318.442 22.5 319.025 21.1167 320.092 20.15C321.159 19.1667 322.642 18.675 324.542 18.675Z" fill="#2B303A"/>
<path d="M445.321 33.45V30.525L453.771 19.15H457.546V30.4H459.846V33.45H457.546V37H453.996V33.45H445.321ZM454.271 23.275L448.921 30.4H454.271V23.275Z" fill="#2B303A"/>
<path d="M590.39 22.1H582.015V26.55C582.398 26.1 582.923 25.7417 583.59 25.475C584.273 25.1917 585.023 25.05 585.84 25.05C587.057 25.05 588.065 25.3167 588.865 25.85C589.682 26.3667 590.282 27.0667 590.665 27.95C591.065 28.8167 591.265 29.7833 591.265 30.85C591.265 32.7333 590.732 34.2417 589.665 35.375C588.615 36.5083 587.107 37.075 585.14 37.075C583.857 37.075 582.74 36.85 581.79 36.4C580.84 35.9333 580.098 35.2917 579.565 34.475C579.032 33.6417 578.74 32.675 578.69 31.575H582.115C582.248 32.325 582.557 32.925 583.04 33.375C583.523 33.8083 584.165 34.025 584.965 34.025C585.932 34.025 586.648 33.7333 587.115 33.15C587.598 32.55 587.84 31.7583 587.84 30.775C587.84 29.8417 587.59 29.1167 587.09 28.6C586.59 28.0833 585.882 27.825 584.965 27.825C584.298 27.825 583.732 27.975 583.265 28.275C582.798 28.5583 582.457 28.9417 582.24 29.425H578.815V19H590.39V22.1Z" fill="#2B303A"/>
<path d="M719.213 24.15C718.946 22.4167 718.063 21.55 716.563 21.55C715.396 21.55 714.546 22.0667 714.013 23.1C713.479 24.1167 713.246 25.7167 713.313 27.9C713.579 27.1 714.096 26.4667 714.863 26C715.646 25.5167 716.554 25.275 717.588 25.275C719.288 25.275 720.621 25.7917 721.588 26.825C722.571 27.8417 723.063 29.2917 723.063 31.175C723.063 32.3417 722.829 33.375 722.363 34.275C721.896 35.175 721.196 35.8833 720.263 36.4C719.346 36.9167 718.229 37.175 716.913 37.175C714.346 37.175 712.579 36.3833 711.613 34.8C710.646 33.2 710.163 31 710.163 28.2C710.163 24.9833 710.679 22.6 711.713 21.05C712.763 19.5 714.454 18.725 716.788 18.725C718.571 18.725 719.938 19.2333 720.888 20.25C721.838 21.2667 722.379 22.5667 722.513 24.15H719.213ZM713.613 30.925C713.613 31.8583 713.879 32.6333 714.413 33.25C714.963 33.85 715.763 34.15 716.813 34.15C717.713 34.15 718.429 33.8833 718.963 33.35C719.496 32.8167 719.763 32.075 719.763 31.125C719.763 30.125 719.488 29.3583 718.938 28.825C718.404 28.2917 717.679 28.025 716.763 28.025C715.896 28.025 715.154 28.275 714.538 28.775C713.921 29.275 713.613 29.9917 713.613 30.925Z" fill="#2B303A"/>
<path d="M856.302 21.825L849.852 37H846.202L852.727 22.225H844.552V19.2H856.302V21.825Z" fill="#2B303A"/>
<g filter="url(#filter1_d)">
<rect x="6" y="66" width="112" height="100" rx="20" fill="#FCFCFC"/>
</g>
<path d="M29.1652 111.284C28.3537 112.091 24.5298 112.973 24.5298 112.973C24.5298 112.973 25.4099 109.177 26.2154 108.371C26.6048 107.984 27.1334 107.766 27.6849 107.765C28.2364 107.764 28.7656 107.981 29.1561 108.367C29.5467 108.753 29.7665 109.277 29.7673 109.824C29.7681 110.371 29.5498 110.896 29.1604 111.284H29.1652Z" fill="#6C63FF"/>
<path d="M29.8742 119.623C29.212 120.554 25.5928 122.064 25.5928 122.064C25.5928 122.064 25.8131 118.176 26.4753 117.246C26.7932 116.799 27.2771 116.495 27.8206 116.402C28.3641 116.309 28.9226 116.433 29.3733 116.749C29.824 117.064 30.13 117.544 30.2239 118.083C30.3179 118.622 30.1921 119.176 29.8742 119.623Z" fill="#6C63FF"/>
<path opacity="0.25" d="M29.1652 111.284C28.3537 112.091 24.5298 112.973 24.5298 112.973C24.5298 112.973 25.4099 109.177 26.2154 108.371C26.6048 107.984 27.1334 107.766 27.6849 107.765C28.2364 107.764 28.7656 107.981 29.1561 108.367C29.5467 108.753 29.7665 109.277 29.7673 109.824C29.7681 110.371 29.5498 110.896 29.1604 111.284H29.1652Z" fill="black"/>
<path opacity="0.25" d="M29.8742 119.623C29.212 120.554 25.5928 122.064 25.5928 122.064C25.5928 122.064 25.8131 118.176 26.4753 117.246C26.7932 116.799 27.2771 116.495 27.8206 116.402C28.3641 116.309 28.9226 116.433 29.3733 116.749C29.824 117.064 30.13 117.544 30.2239 118.083C30.3179 118.622 30.1921 119.176 29.8742 119.623Z" fill="black"/>
<path opacity="0.1" d="M63.0691 152C74.9717 152 84.6207 151.432 84.6207 150.732C84.6207 150.031 74.9717 149.463 63.0691 149.463C51.1665 149.463 41.5176 150.031 41.5176 150.732C41.5176 151.432 51.1665 152 63.0691 152Z" fill="#6C63FF"/>
<path d="M72.9772 148.502V149.267H50.147V148.644C51.5395 148.132 52.7476 147.222 53.6184 146.029C54.4893 144.836 54.9836 143.413 55.0389 141.941C55.0942 140.469 54.708 139.014 53.9291 137.76C53.1502 136.506 52.0137 135.509 50.6635 134.896H72.8267C71.5076 135.496 70.3923 136.463 69.6155 137.679C68.8387 138.895 68.4338 140.308 68.4497 141.747C68.4656 143.187 68.9017 144.591 69.7052 145.789C70.5087 146.988 71.6452 147.93 72.9772 148.502Z" fill="#C8CAD7"/>
<path opacity="0.1" d="M72.8267 134.897C71.8079 135.361 70.9065 136.045 70.1886 136.899C69.4707 137.753 68.9545 138.755 68.6778 139.833H54.8125C54.5358 138.755 54.0196 137.753 53.3017 136.899C52.5838 136.045 51.6824 135.361 50.6636 134.897H72.8267Z" fill="black"/>
<path d="M24 130.995V135.295C24 137.669 25.7518 139.594 27.913 139.594H95.096C97.2572 139.594 99.009 137.669 99.009 135.295V130.995H24Z" fill="#C8CAD7"/>
<path opacity="0.1" d="M72.9772 148.502V149.268H50.147V148.644C50.7729 148.414 51.3648 148.101 51.9072 147.715H71.5805C72.0164 148.026 72.4846 148.29 72.9772 148.502Z" fill="black"/>
<path d="M79.3837 147.954H43.7454C43.1137 147.954 42.6016 148.462 42.6016 149.088C42.6016 149.715 43.1137 150.223 43.7454 150.223H79.3837C80.0154 150.223 80.5275 149.715 80.5275 149.088C80.5275 148.462 80.0154 147.954 79.3837 147.954Z" fill="#C8CAD7"/>
<path d="M99.009 83.8814C99.009 82.852 98.5967 81.8647 97.8629 81.1368C97.1291 80.4089 96.1338 80 95.096 80H27.913C26.8752 80 25.8799 80.4089 25.1461 81.1368C24.4123 81.8647 24 82.852 24 83.8814V131.831H99.009V83.8814Z" fill="#474157"/>
<path d="M95.0354 83.7023H27.9728C26.9089 83.7023 26.0464 84.5578 26.0464 85.6131V126.815C26.0464 127.871 26.9089 128.726 27.9728 128.726H95.0354C96.0993 128.726 96.9618 127.871 96.9618 126.815V85.6131C96.9618 84.5578 96.0993 83.7023 95.0354 83.7023Z" fill="#EDEDF4"/>
<path d="M61.5041 82.7468C62.0028 82.7468 62.4071 82.3458 62.4071 81.8511C62.4071 81.3565 62.0028 80.9554 61.5041 80.9554C61.0054 80.9554 60.6011 81.3565 60.6011 81.8511C60.6011 82.3458 61.0054 82.7468 61.5041 82.7468Z" fill="white"/>
<path d="M61.5042 137.683C62.7344 137.683 63.7316 136.694 63.7316 135.474C63.7316 134.253 62.7344 133.264 61.5042 133.264C60.2741 133.264 59.2769 134.253 59.2769 135.474C59.2769 136.694 60.2741 137.683 61.5042 137.683Z" fill="white"/>
<path d="M96.9618 85.6131H26.0464C26.0464 85.1063 26.2493 84.6203 26.6106 84.2619C26.9719 83.9036 27.4619 83.7023 27.9728 83.7023H95.0354C95.5463 83.7023 96.0363 83.9036 96.3976 84.2619C96.7589 84.6203 96.9618 85.1063 96.9618 85.6131Z" fill="#C8CAD7"/>
<path d="M27.9728 85.1353C28.2388 85.1353 28.4544 84.9215 28.4544 84.6576C28.4544 84.3938 28.2388 84.1799 27.9728 84.1799C27.7068 84.1799 27.4912 84.3938 27.4912 84.6576C27.4912 84.9215 27.7068 85.1353 27.9728 85.1353Z" fill="#EDEDF4"/>
<path d="M29.4176 85.1353C29.6836 85.1353 29.8992 84.9215 29.8992 84.6576C29.8992 84.3938 29.6836 84.1799 29.4176 84.1799C29.1517 84.1799 28.936 84.3938 28.936 84.6576C28.936 84.9215 29.1517 85.1353 29.4176 85.1353Z" fill="#EDEDF4"/>
<path d="M30.8625 85.1353C31.1284 85.1353 31.3441 84.9215 31.3441 84.6576C31.3441 84.3938 31.1284 84.1799 30.8625 84.1799C30.5965 84.1799 30.3809 84.3938 30.3809 84.6576C30.3809 84.9215 30.5965 85.1353 30.8625 85.1353Z" fill="#EDEDF4"/>
<path d="M46.8757 87.2253H28.6953V88.3002H46.8757V87.2253Z" fill="#6C63FF"/>
<path d="M46.8757 118.635H28.6953V119.709H46.8757V118.635Z" fill="#6C63FF"/>
<path opacity="0.2" d="M62.4072 121.023H28.6953V122.098H62.4072V121.023Z" fill="#6C63FF"/>
<path opacity="0.2" d="M62.4072 122.577H28.6953V123.652H62.4072V122.577Z" fill="#6C63FF"/>
<path opacity="0.2" d="M62.4072 124.129H28.6953V125.204H62.4072V124.129Z" fill="#6C63FF"/>
<path opacity="0.2" d="M62.1664 90.0916H28.6953V108.125H62.1664V90.0916Z" fill="#6C63FF"/>
<path opacity="0.2" d="M36.8826 109.797H29.0566V116.963H36.8826V109.797Z" fill="#6C63FF"/>
<path opacity="0.2" d="M62.1663 109.797H54.3403V116.963H62.1663V109.797Z" fill="#6C63FF"/>
<path opacity="0.2" d="M49.3435 109.797H41.5176V116.963H49.3435V109.797Z" fill="#6C63FF"/>
<path opacity="0.2" d="M92.3471 95.3368H69.311V112.156H92.3471V95.3368Z" fill="#6C63FF"/>
<path d="M89.9186 98.75H71.7383V99.8248H89.9186V98.75Z" fill="#EDEDF4"/>
<path d="M89.9186 100.98H71.7383V102.055H89.9186V100.98Z" fill="#EDEDF4"/>
<path d="M89.9186 103.209H71.7383V104.284H89.9186V103.209Z" fill="#EDEDF4"/>
<path d="M89.9186 105.438H71.7383V106.513H89.9186V105.438Z" fill="#EDEDF4"/>
<path d="M89.9186 107.668H71.7383V108.742H89.9186V107.668Z" fill="#EDEDF4"/>
<path d="M89.5383 114.066H72.1201V117.091H89.5383V114.066Z" fill="#6C63FF"/>
<path d="M82.8694 124.146H71.1895V126.175H82.8694V124.146Z" fill="#6C63FF"/>
<g filter="url(#filter2_d)">
<rect x="792" y="66" width="112" height="100" rx="20" fill="#FCFCFC"/>
</g>
<path d="M886.344 89.0463H803.035V142H886.344V89.0463Z" fill="#E6E6E6"/>
<path d="M883.963 95.6886H805.418V138.868H883.963V95.6886Z" fill="white"/>
<path d="M886.31 89H803V92.5127H886.31V89Z" fill="#6C63FF"/>
<path d="M805.63 91.4469C805.992 91.4469 806.286 91.1554 806.286 90.7958C806.286 90.4363 805.992 90.1448 805.63 90.1448C805.268 90.1448 804.974 90.4363 804.974 90.7958C804.974 91.1554 805.268 91.4469 805.63 91.4469Z" fill="white"/>
<path d="M808.12 91.4469C808.482 91.4469 808.776 91.1554 808.776 90.7958C808.776 90.4363 808.482 90.1448 808.12 90.1448C807.758 90.1448 807.464 90.4363 807.464 90.7958C807.464 91.1554 807.758 91.4469 808.12 91.4469Z" fill="white"/>
<path d="M810.61 91.4469C810.972 91.4469 811.266 91.1554 811.266 90.7958C811.266 90.4363 810.972 90.1448 810.61 90.1448C810.248 90.1448 809.954 90.4363 809.954 90.7958C809.954 91.1554 810.248 91.4469 810.61 91.4469Z" fill="white"/>
<path d="M832.737 100.169H812.555V134.388H832.737V100.169Z" fill="#E6E6E6"/>
<path d="M853.04 100.169H836.221V109.588H853.04V100.169Z" fill="#6C63FF"/>
<path d="M853.04 112.211H836.221V122.345H853.04V112.211Z" fill="#E6E6E6"/>
<path d="M853.04 124.969H836.221V134.388H853.04V124.969Z" fill="#E6E6E6"/>
<path d="M876.826 100.169H856.644V115.081H876.826V100.169Z" fill="#E6E6E6"/>
<path d="M876.826 119.475H856.644V134.388H876.826V119.475Z" fill="#6C63FF"/>
<path d="M873.305 104.593C871.349 102.954 868.955 101.916 866.414 101.603C863.874 101.29 861.297 101.717 858.996 102.832C856.696 103.946 854.772 105.7 853.458 107.88C852.143 110.061 851.496 112.573 851.594 115.111C851.692 117.65 852.532 120.106 854.011 122.179C855.489 124.253 857.544 125.856 859.923 126.792C862.303 127.728 864.905 127.958 867.414 127.453C869.923 126.948 872.23 125.73 874.054 123.947L890.251 137.512C890.373 137.614 890.514 137.691 890.666 137.739C890.819 137.788 890.979 137.806 891.138 137.792C891.298 137.779 891.453 137.734 891.595 137.662C891.736 137.589 891.863 137.489 891.966 137.368C892.069 137.246 892.147 137.106 892.195 136.955C892.244 136.804 892.262 136.645 892.248 136.487C892.235 136.329 892.19 136.175 892.116 136.034C892.043 135.893 891.942 135.768 891.82 135.666L875.623 122.101C877.505 119.421 878.31 116.14 877.881 112.901C877.452 109.663 875.82 106.699 873.305 104.593ZM872.261 120.795C870.999 122.279 869.322 123.359 867.442 123.897C865.562 124.435 863.563 124.408 861.699 123.819C859.834 123.23 858.188 122.106 856.967 120.588C855.747 119.07 855.007 117.227 854.842 115.292C854.677 113.357 855.093 111.417 856.039 109.717C856.985 108.017 858.418 106.633 860.156 105.742C861.894 104.85 863.859 104.489 865.804 104.706C867.748 104.923 869.584 105.707 871.08 106.959C873.085 108.638 874.336 111.04 874.557 113.634C874.779 116.229 873.953 118.805 872.261 120.795Z" fill="#3F3D56"/>
<path opacity="0.3" d="M858.32 121.967C856.422 120.378 855.195 118.138 854.884 115.693C854.573 113.248 855.2 110.776 856.641 108.768C856.452 108.957 856.269 109.155 856.092 109.362C855.254 110.347 854.62 111.487 854.226 112.716C853.832 113.944 853.685 115.238 853.795 116.523C853.905 117.808 854.268 119.059 854.865 120.204C855.462 121.35 856.28 122.367 857.273 123.199C858.266 124.03 859.414 124.659 860.652 125.051C861.89 125.442 863.194 125.587 864.488 125.478C865.783 125.369 867.043 125.008 868.197 124.416C869.351 123.824 870.376 123.011 871.214 122.026C871.39 121.819 871.556 121.606 871.712 121.389C869.96 123.136 867.61 124.165 865.129 124.272C862.648 124.38 860.218 123.557 858.32 121.967Z" fill="black"/>
<g filter="url(#filter3_d)">
<rect x="661" y="66" width="112" height="100" rx="20" fill="#FCFCFC"/>
</g>
<path d="M759 110.559H758.839V106.157C758.839 105.823 758.774 105.491 758.646 105.182C758.518 104.873 758.331 104.592 758.094 104.356C757.858 104.119 757.578 103.932 757.269 103.804C756.96 103.676 756.63 103.61 756.296 103.61H746.984C746.65 103.61 746.319 103.676 746.01 103.804C745.702 103.932 745.421 104.119 745.185 104.356C744.949 104.592 744.761 104.873 744.634 105.182C744.506 105.491 744.44 105.823 744.44 106.157V130.304C744.44 130.639 744.506 130.97 744.634 131.279C744.761 131.588 744.949 131.869 745.185 132.105C745.421 132.342 745.702 132.53 746.01 132.658C746.319 132.786 746.65 132.851 746.984 132.851H756.296C756.63 132.851 756.96 132.786 757.269 132.658C757.578 132.53 757.858 132.342 758.094 132.105C758.331 131.869 758.518 131.588 758.646 131.279C758.774 130.97 758.839 130.639 758.839 130.304V113.692H759V110.559Z" fill="#3F3D56"/>
<path d="M758.298 106.307V130.419C758.298 130.923 758.098 131.407 757.742 131.764C757.386 132.121 756.902 132.321 756.398 132.321H747.042C746.792 132.321 746.545 132.272 746.315 132.176C746.085 132.081 745.875 131.941 745.699 131.764C745.522 131.587 745.383 131.377 745.287 131.147C745.192 130.916 745.143 130.668 745.143 130.419V106.307C745.143 105.802 745.343 105.319 745.699 104.962C746.055 104.605 746.538 104.405 747.042 104.405H748.177C748.121 104.542 748.1 104.691 748.115 104.838C748.131 104.986 748.182 105.127 748.264 105.25C748.347 105.373 748.458 105.474 748.589 105.543C748.719 105.613 748.865 105.65 749.013 105.65H754.347C754.495 105.65 754.641 105.614 754.772 105.544C754.903 105.475 755.014 105.374 755.097 105.251C755.18 105.128 755.231 104.986 755.246 104.839C755.261 104.691 755.239 104.542 755.183 104.405H756.398C756.902 104.405 757.385 104.605 757.742 104.962C758.098 105.319 758.298 105.802 758.298 106.307Z" fill="#D0CDE1"/>
<path d="M756.527 116.75H745.65V119.689H756.527V116.75Z" fill="#6C63FF"/>
<path d="M756.959 119.17H746.427C746.359 119.17 746.293 119.143 746.244 119.094C746.196 119.046 746.169 118.98 746.168 118.911V116.317C746.169 116.249 746.196 116.183 746.244 116.134C746.293 116.086 746.359 116.058 746.427 116.058H756.959C757.027 116.058 757.093 116.086 757.142 116.134C757.19 116.183 757.218 116.249 757.218 116.317V118.911C757.218 118.98 757.19 119.046 757.142 119.094C757.093 119.143 757.027 119.17 756.959 119.17ZM746.427 116.231C746.405 116.231 746.383 116.24 746.366 116.256C746.35 116.273 746.341 116.295 746.341 116.317V118.911C746.341 118.934 746.35 118.956 746.366 118.972C746.383 118.988 746.405 118.997 746.427 118.997H756.959C756.982 118.997 757.004 118.988 757.02 118.972C757.036 118.956 757.045 118.934 757.045 118.911V116.317C757.045 116.295 757.036 116.273 757.02 116.256C757.004 116.24 756.982 116.231 756.959 116.231H746.427Z" fill="#3F3D56"/>
<path d="M748.24 118.392H746.859V118.565H748.24V118.392Z" fill="#3F3D56"/>
<path d="M750.139 118.392H748.758V118.565H750.139V118.392Z" fill="#3F3D56"/>
<path d="M752.038 118.392H750.657V118.565H752.038V118.392Z" fill="#3F3D56"/>
<path d="M753.937 118.392H752.556V118.565H753.937V118.392Z" fill="#3F3D56"/>
<path d="M755.837 118.392H754.455V118.565H755.837V118.392Z" fill="#3F3D56"/>
<path opacity="0.1" d="M758.298 127.967V130.419C758.298 130.923 758.098 131.407 757.742 131.764C757.386 132.121 756.902 132.321 756.398 132.321H747.042C746.792 132.321 746.545 132.272 746.315 132.176C746.085 132.081 745.875 131.941 745.699 131.764C745.522 131.587 745.383 131.377 745.287 131.147C745.192 130.916 745.143 130.668 745.143 130.419V119.141L758.298 127.967Z" fill="black"/>
<path d="M724.45 125.74H683.619V145.796H724.45V125.74Z" fill="#D0CDE1"/>
<path opacity="0.1" d="M714.07 145.796H683.792C683.746 145.796 683.702 145.777 683.67 145.745C683.638 145.713 683.62 145.669 683.619 145.623V125.913C683.62 125.867 683.638 125.823 683.67 125.791C683.702 125.759 683.746 125.74 683.792 125.74H684.175L714.07 145.796Z" fill="black"/>
<path d="M702.487 128.436H754.567V128.436H702.487V128.436Z" stroke="#3F3D56" stroke-width="0.4"/>
<path d="M722.529 86.3733H704.445V86H696.245V86.3733H678.087C677.926 86.3733 677.767 86.4049 677.619 86.4665C677.47 86.5281 677.335 86.6183 677.222 86.732C677.108 86.8458 677.018 86.9808 676.957 87.1295C676.895 87.2781 676.864 87.4374 676.864 87.5982V112.396C676.864 112.721 676.992 113.032 677.222 113.262C677.451 113.492 677.762 113.621 678.087 113.621H722.529C722.853 113.621 723.164 113.492 723.394 113.262C723.623 113.032 723.752 112.721 723.752 112.396V87.5982C723.752 87.4374 723.72 87.2781 723.659 87.1295C723.597 86.9808 723.507 86.8458 723.394 86.732C723.28 86.6183 723.145 86.5281 722.997 86.4665C722.848 86.4049 722.689 86.3733 722.529 86.3733Z" fill="#3F3D56"/>
<path d="M722.112 88.5377H678.504V113.173H722.112V88.5377Z" fill="#D0CDE1"/>
<path d="M700.271 87.8663C700.518 87.8663 700.718 87.6657 700.718 87.4184C700.718 87.171 700.518 86.9705 700.271 86.9705C700.024 86.9705 699.823 87.171 699.823 87.4184C699.823 87.6657 700.024 87.8663 700.271 87.8663Z" fill="#6C63FF"/>
<path d="M691.474 97.7313H690.439C690.37 97.7313 690.304 97.7039 690.256 97.6553C690.207 97.6067 690.18 97.5408 690.18 97.472V96.4346C690.18 96.3659 690.207 96.3 690.256 96.2513C690.304 96.2027 690.37 96.1754 690.439 96.1753H691.474C691.543 96.1754 691.609 96.2027 691.657 96.2513C691.706 96.3 691.733 96.3659 691.733 96.4346V97.472C691.733 97.5408 691.706 97.6067 691.657 97.6553C691.609 97.7039 691.543 97.7313 691.474 97.7313ZM690.439 96.3482C690.416 96.3482 690.394 96.3573 690.378 96.3735C690.361 96.3897 690.352 96.4117 690.352 96.4346V97.472C690.352 97.4949 690.361 97.5169 690.378 97.5331C690.394 97.5493 690.416 97.5584 690.439 97.5584H691.474C691.497 97.5584 691.519 97.5493 691.535 97.5331C691.552 97.5169 691.561 97.4949 691.561 97.472V96.4346C691.561 96.4117 691.552 96.3897 691.535 96.3735C691.519 96.3573 691.497 96.3482 691.474 96.3482H690.439Z" fill="#3F3D56"/>
<path d="M709.948 97.5585H690.266V97.7314H709.948V97.5585Z" fill="#3F3D56"/>
<path d="M709.43 102.313H704.854V103.696H709.43V102.313Z" fill="#6C63FF"/>
<path d="M709.775 103.35H705.545C705.477 103.35 705.411 103.323 705.362 103.274C705.314 103.226 705.286 103.16 705.286 103.091V102.054C705.286 101.985 705.314 101.919 705.362 101.87C705.411 101.822 705.477 101.795 705.545 101.794H709.775C709.844 101.795 709.909 101.822 709.958 101.87C710.007 101.919 710.034 101.985 710.034 102.054V103.091C710.034 103.16 710.007 103.226 709.958 103.274C709.909 103.323 709.844 103.35 709.775 103.35ZM705.545 101.967C705.522 101.967 705.5 101.976 705.484 101.993C705.468 102.009 705.459 102.031 705.459 102.054V103.091C705.459 103.114 705.468 103.136 705.484 103.152C705.5 103.168 705.522 103.178 705.545 103.178H709.775C709.798 103.178 709.82 103.168 709.836 103.152C709.852 103.136 709.861 103.114 709.861 103.091V102.054C709.861 102.031 709.852 102.009 709.836 101.993C709.82 101.976 709.798 101.967 709.775 101.967H705.545Z" fill="#3F3D56"/>
<path d="M737.641 100.981H729.009V107.033H737.641V100.981Z" fill="#6C63FF"/>
<path d="M738.505 106.557H730.218C730.126 106.557 730.038 106.521 729.974 106.456C729.909 106.391 729.872 106.303 729.872 106.211V100.506C729.872 100.414 729.909 100.326 729.974 100.261C730.038 100.197 730.126 100.16 730.218 100.16H738.505C738.596 100.16 738.684 100.197 738.749 100.261C738.813 100.326 738.85 100.414 738.85 100.506V106.211C738.85 106.303 738.813 106.391 738.749 106.456C738.684 106.521 738.596 106.557 738.505 106.557ZM730.218 100.506V106.211H738.505L738.505 100.506H730.218Z" fill="#3F3D56"/>
<path d="M737.555 100.29H737.21C737.21 99.5331 736.909 98.8075 736.375 98.2725C735.841 97.7375 735.116 97.437 734.361 97.437C733.605 97.437 732.881 97.7375 732.347 98.2725C731.812 98.8075 731.512 99.5331 731.512 100.29H731.167C731.167 99.4414 731.503 98.6279 732.102 98.028C732.701 97.4282 733.514 97.0912 734.361 97.0912C735.208 97.0912 736.02 97.4282 736.619 98.028C737.218 98.6279 737.555 99.4414 737.555 100.29Z" fill="#3F3D56"/>
<path d="M735.224 102.667C735.224 102.516 735.185 102.368 735.111 102.238C735.036 102.107 734.929 101.998 734.8 101.921C734.67 101.845 734.523 101.804 734.373 101.802C734.222 101.8 734.074 101.837 733.943 101.91C733.811 101.983 733.701 102.089 733.623 102.218C733.545 102.346 733.502 102.493 733.498 102.644C733.494 102.794 733.53 102.943 733.601 103.075C733.672 103.208 733.776 103.32 733.904 103.399V104.327C733.904 104.387 733.916 104.447 733.939 104.502C733.962 104.558 733.995 104.608 734.038 104.651C734.08 104.693 734.131 104.727 734.186 104.75C734.242 104.773 734.301 104.785 734.361 104.785C734.482 104.785 734.598 104.737 734.684 104.651C734.77 104.565 734.818 104.449 734.818 104.327V103.399C734.942 103.322 735.045 103.214 735.116 103.086C735.187 102.958 735.224 102.814 735.224 102.667Z" fill="#3F3D56"/>
<path d="M700.927 134.644H699.546V134.817H700.927V134.644Z" fill="#3F3D56"/>
<path d="M702.826 134.644H701.445V134.817H702.826V134.644Z" fill="#3F3D56"/>
<path d="M704.725 134.644H703.344V134.817H704.725V134.644Z" fill="#3F3D56"/>
<path d="M706.624 134.644H705.243V134.817H706.624V134.644Z" fill="#3F3D56"/>
<path d="M708.523 134.644H707.142V134.817H708.523V134.644Z" fill="#3F3D56"/>
<path d="M726.263 144.326H685.777C685.686 144.326 685.598 144.29 685.533 144.225C685.469 144.16 685.432 144.072 685.432 143.98V124.27C685.432 124.179 685.469 124.091 685.533 124.026C685.598 123.961 685.686 123.925 685.777 123.925H726.263C726.354 123.925 726.442 123.961 726.507 124.026C726.571 124.091 726.608 124.179 726.608 124.27V143.98C726.608 144.072 726.571 144.16 726.507 144.225C726.442 144.29 726.354 144.326 726.263 144.326ZM685.777 124.27V143.98H726.263L726.263 124.27H685.777Z" fill="#3F3D56"/>
<path d="M687.59 127.21C687.876 127.21 688.108 126.978 688.108 126.691C688.108 126.405 687.876 126.172 687.59 126.172C687.304 126.172 687.072 126.405 687.072 126.691C687.072 126.978 687.304 127.21 687.59 127.21Z" fill="#3F3D56"/>
<path d="M689.403 127.21C689.689 127.21 689.921 126.978 689.921 126.691C689.921 126.405 689.689 126.172 689.403 126.172C689.117 126.172 688.885 126.405 688.885 126.691C688.885 126.978 689.117 127.21 689.403 127.21Z" fill="#3F3D56"/>
<path d="M691.216 127.21C691.502 127.21 691.734 126.978 691.734 126.691C691.734 126.405 691.502 126.172 691.216 126.172C690.93 126.172 690.698 126.405 690.698 126.691C690.698 126.978 690.93 127.21 691.216 127.21Z" fill="#3F3D56"/>
<path d="M709.861 135.854H698.208C698.139 135.854 698.073 135.827 698.025 135.778C697.976 135.73 697.949 135.664 697.949 135.595V132.656C697.949 132.587 697.976 132.521 698.025 132.473C698.073 132.424 698.139 132.397 698.208 132.396H709.861C709.93 132.397 709.996 132.424 710.045 132.473C710.093 132.521 710.12 132.587 710.12 132.656V135.595C710.12 135.664 710.093 135.73 710.045 135.778C709.996 135.827 709.93 135.854 709.861 135.854ZM698.208 132.569C698.185 132.569 698.163 132.579 698.147 132.595C698.131 132.611 698.122 132.633 698.122 132.656V135.595C698.122 135.618 698.131 135.64 698.147 135.656C698.163 135.672 698.185 135.681 698.208 135.681H709.861C709.884 135.681 709.906 135.672 709.922 135.656C709.939 135.64 709.948 135.618 709.948 135.595V132.656C709.948 132.633 709.939 132.611 709.922 132.595C709.906 132.579 709.884 132.569 709.861 132.569H698.208Z" fill="#3F3D56"/>
<path d="M712.796 135.941C713.654 135.941 714.35 135.244 714.35 134.385C714.35 133.525 713.654 132.829 712.796 132.829C711.938 132.829 711.242 133.525 711.242 134.385C711.242 135.244 711.938 135.941 712.796 135.941Z" fill="#6C63FF"/>
<path d="M713.314 135.768C712.99 135.768 712.673 135.672 712.403 135.491C712.133 135.311 711.923 135.054 711.799 134.754C711.675 134.454 711.642 134.124 711.706 133.805C711.769 133.486 711.925 133.194 712.155 132.964C712.384 132.734 712.676 132.578 712.994 132.514C713.312 132.451 713.642 132.484 713.942 132.608C714.242 132.732 714.498 132.943 714.678 133.213C714.858 133.483 714.954 133.801 714.954 134.125C714.954 134.561 714.781 134.978 714.473 135.286C714.166 135.594 713.749 135.767 713.314 135.768ZM713.314 132.656C713.024 132.656 712.74 132.742 712.499 132.903C712.258 133.065 712.07 133.294 711.958 133.563C711.847 133.832 711.818 134.127 711.875 134.412C711.932 134.697 712.071 134.959 712.277 135.165C712.482 135.37 712.743 135.51 713.028 135.567C713.313 135.623 713.608 135.594 713.876 135.483C714.144 135.372 714.373 135.184 714.534 134.942C714.696 134.7 714.782 134.416 714.782 134.125C714.781 133.736 714.627 133.362 714.351 133.087C714.076 132.811 713.703 132.656 713.314 132.656Z" fill="#3F3D56"/>
<path d="M713.337 134.739L712.501 133.902L712.745 133.657L713.291 134.204L714.813 132.038L715.095 132.237L713.337 134.739Z" fill="#3F3D56"/>
<path opacity="0.1" d="M712.444 113.173H678.504V90.4042L712.444 113.173Z" fill="black"/>
<path d="M724.976 112.725H720.72V112.418C720.72 112.41 720.719 112.402 720.716 112.395C720.713 112.387 720.708 112.381 720.703 112.375C720.697 112.369 720.69 112.365 720.683 112.362C720.675 112.359 720.668 112.357 720.66 112.357H719.2C719.192 112.357 719.185 112.359 719.177 112.362C719.17 112.365 719.163 112.369 719.157 112.375C719.152 112.381 719.147 112.387 719.144 112.395C719.141 112.402 719.14 112.41 719.14 112.418V112.725H718.228V112.418C718.228 112.41 718.226 112.402 718.223 112.395C718.22 112.387 718.215 112.381 718.21 112.375C718.204 112.369 718.197 112.365 718.19 112.362C718.183 112.359 718.175 112.357 718.167 112.357H716.708C716.7 112.357 716.692 112.359 716.684 112.362C716.677 112.365 716.67 112.369 716.665 112.375C716.659 112.381 716.655 112.387 716.652 112.395C716.648 112.402 716.647 112.41 716.647 112.418V112.725H715.735V112.418C715.735 112.41 715.733 112.402 715.73 112.395C715.727 112.387 715.723 112.381 715.717 112.375C715.711 112.369 715.705 112.365 715.697 112.362C715.69 112.359 715.682 112.357 715.674 112.357H714.215C714.207 112.357 714.199 112.359 714.192 112.362C714.184 112.365 714.178 112.369 714.172 112.375C714.166 112.381 714.162 112.387 714.159 112.395C714.156 112.402 714.154 112.41 714.154 112.418V112.725H713.242V112.418C713.242 112.41 713.241 112.402 713.238 112.395C713.235 112.387 713.23 112.381 713.224 112.375C713.219 112.369 713.212 112.365 713.205 112.362C713.197 112.359 713.189 112.357 713.181 112.357H711.722C711.714 112.357 711.706 112.359 711.699 112.362C711.692 112.365 711.685 112.369 711.679 112.375C711.674 112.381 711.669 112.387 711.666 112.395C711.663 112.402 711.661 112.41 711.661 112.418V112.725H710.749V112.418C710.749 112.41 710.748 112.402 710.745 112.395C710.742 112.387 710.737 112.381 710.732 112.375C710.726 112.369 710.719 112.365 710.712 112.362C710.705 112.359 710.697 112.357 710.689 112.357H709.229C709.222 112.357 709.214 112.359 709.206 112.362C709.199 112.365 709.192 112.369 709.187 112.375C709.181 112.381 709.176 112.387 709.173 112.395C709.17 112.402 709.169 112.41 709.169 112.418V112.725H708.257V112.418C708.257 112.41 708.255 112.402 708.252 112.395C708.249 112.387 708.245 112.381 708.239 112.375C708.233 112.369 708.227 112.365 708.219 112.362C708.212 112.359 708.204 112.357 708.196 112.357H706.737C706.729 112.357 706.721 112.359 706.713 112.362C706.706 112.365 706.699 112.369 706.694 112.375C706.688 112.381 706.684 112.387 706.681 112.395C706.678 112.402 706.676 112.41 706.676 112.418V112.725H705.764V112.418C705.764 112.41 705.762 112.402 705.759 112.395C705.756 112.387 705.752 112.381 705.746 112.375C705.741 112.369 705.734 112.365 705.726 112.362C705.719 112.359 705.711 112.357 705.703 112.357H694.273C694.265 112.357 694.257 112.359 694.25 112.362C694.242 112.365 694.236 112.369 694.23 112.375C694.224 112.381 694.22 112.387 694.217 112.395C694.214 112.402 694.212 112.41 694.212 112.418V112.725H693.3V112.418C693.3 112.41 693.299 112.402 693.296 112.395C693.293 112.387 693.288 112.381 693.283 112.375C693.277 112.369 693.27 112.365 693.263 112.362C693.255 112.359 693.247 112.357 693.24 112.357H691.78C691.772 112.357 691.764 112.359 691.757 112.362C691.75 112.365 691.743 112.369 691.737 112.375C691.732 112.381 691.727 112.387 691.724 112.395C691.721 112.402 691.72 112.41 691.72 112.418V112.725H690.808V112.418C690.808 112.41 690.806 112.402 690.803 112.395C690.8 112.387 690.795 112.381 690.79 112.375C690.784 112.369 690.777 112.365 690.77 112.362C690.763 112.359 690.755 112.357 690.747 112.357H689.288C689.28 112.357 689.272 112.359 689.264 112.362C689.257 112.365 689.25 112.369 689.245 112.375C689.239 112.381 689.235 112.387 689.231 112.395C689.228 112.402 689.227 112.41 689.227 112.418V112.725H688.315V112.418C688.315 112.41 688.313 112.402 688.31 112.395C688.307 112.387 688.303 112.381 688.297 112.375C688.291 112.369 688.285 112.365 688.277 112.362C688.27 112.359 688.262 112.357 688.254 112.357H686.795C686.787 112.357 686.779 112.359 686.772 112.362C686.764 112.365 686.758 112.369 686.752 112.375C686.746 112.381 686.742 112.387 686.739 112.395C686.736 112.402 686.734 112.41 686.734 112.418V112.725H685.822V112.418C685.822 112.41 685.821 112.402 685.817 112.395C685.814 112.387 685.81 112.381 685.804 112.375C685.799 112.369 685.792 112.365 685.785 112.362C685.777 112.359 685.769 112.357 685.761 112.357H684.302C684.294 112.357 684.286 112.359 684.279 112.362C684.272 112.365 684.265 112.369 684.259 112.375C684.254 112.381 684.249 112.387 684.246 112.395C684.243 112.402 684.241 112.41 684.241 112.418V112.725H683.329V112.418C683.329 112.41 683.328 112.402 683.325 112.395C683.322 112.387 683.317 112.381 683.312 112.375C683.306 112.369 683.299 112.365 683.292 112.362C683.284 112.359 683.277 112.357 683.269 112.357H681.809C681.801 112.357 681.794 112.359 681.786 112.362C681.779 112.365 681.772 112.369 681.766 112.375C681.761 112.381 681.756 112.387 681.753 112.395C681.75 112.402 681.749 112.41 681.749 112.418V112.725H680.837V112.418C680.837 112.41 680.835 112.402 680.832 112.395C680.829 112.387 680.824 112.381 680.819 112.375C680.813 112.369 680.806 112.365 680.799 112.362C680.792 112.359 680.784 112.357 680.776 112.357H679.317C679.309 112.357 679.301 112.359 679.293 112.362C679.286 112.365 679.279 112.369 679.274 112.375C679.268 112.381 679.264 112.387 679.261 112.395C679.257 112.402 679.256 112.41 679.256 112.418V112.725H676.459C676.268 112.725 676.078 112.763 675.901 112.836C675.724 112.91 675.563 113.017 675.427 113.153C675.292 113.289 675.184 113.45 675.111 113.627C675.038 113.804 675 113.995 675 114.186V114.847C675 115.235 675.154 115.606 675.427 115.88C675.701 116.154 676.072 116.308 676.459 116.308H724.976C725.168 116.308 725.358 116.271 725.535 116.197C725.712 116.124 725.873 116.016 726.008 115.88C726.144 115.745 726.251 115.584 726.324 115.406C726.398 115.229 726.435 115.039 726.435 114.847V114.186C726.435 113.995 726.398 113.804 726.324 113.627C726.251 113.45 726.144 113.289 726.008 113.153C725.873 113.017 725.712 112.91 725.535 112.836C725.358 112.763 725.168 112.725 724.976 112.725Z" fill="#3F3D56"/>
<path d="M711.674 104.82H688.885C688.817 104.82 688.751 104.793 688.702 104.744C688.654 104.695 688.626 104.629 688.626 104.561V95.0516C688.626 94.9828 688.654 94.9169 688.702 94.8683C688.751 94.8197 688.817 94.7923 688.885 94.7922H711.674C711.743 94.7923 711.809 94.8197 711.857 94.8683C711.906 94.9169 711.933 94.9828 711.933 95.0516V104.561C711.933 104.629 711.906 104.695 711.857 104.744C711.809 104.793 711.743 104.82 711.674 104.82ZM688.885 94.9651C688.862 94.9652 688.84 94.9743 688.824 94.9905C688.808 95.0067 688.799 95.0287 688.799 95.0516V104.561C688.799 104.584 688.808 104.606 688.824 104.622C688.84 104.638 688.862 104.647 688.885 104.647H711.674C711.697 104.647 711.719 104.638 711.735 104.622C711.752 104.606 711.761 104.584 711.761 104.561V95.0516C711.761 95.0287 711.752 95.0067 711.735 94.9905C711.719 94.9743 711.697 94.9652 711.674 94.9651H688.885Z" fill="#3F3D56"/>
<path d="M691.474 100.325H690.439C690.37 100.325 690.304 100.297 690.256 100.249C690.207 100.2 690.18 100.134 690.18 100.066V99.0281C690.18 98.9594 690.207 98.8935 690.256 98.8448C690.304 98.7962 690.37 98.7689 690.439 98.7688H691.474C691.543 98.7689 691.609 98.7962 691.657 98.8448C691.706 98.8935 691.733 98.9594 691.733 99.0281V100.066C691.733 100.134 691.706 100.2 691.657 100.249C691.609 100.297 691.543 100.325 691.474 100.325ZM690.439 98.9417C690.416 98.9417 690.394 98.9508 690.378 98.967C690.361 98.9833 690.352 99.0052 690.352 99.0281V100.066C690.352 100.088 690.361 100.11 690.378 100.127C690.394 100.143 690.416 100.152 690.439 100.152H691.474C691.497 100.152 691.519 100.143 691.535 100.127C691.552 100.11 691.561 100.088 691.561 100.066V99.0281C691.561 99.0052 691.552 98.9833 691.535 98.967C691.519 98.9508 691.497 98.9417 691.474 98.9417H690.439Z" fill="#3F3D56"/>
<path d="M709.948 100.152H690.266V100.325H709.948V100.152Z" fill="#3F3D56"/>
<path d="M697.862 110.525C698.53 110.525 699.071 109.984 699.071 109.315C699.071 108.647 698.53 108.105 697.862 108.105C697.195 108.105 696.654 108.647 696.654 109.315C696.654 109.984 697.195 110.525 697.862 110.525Z" fill="#3F3D56"/>
<path d="M750.139 110.439C750.664 110.439 751.089 110.013 751.089 109.488C751.089 108.963 750.664 108.537 750.139 108.537C749.615 108.537 749.19 108.963 749.19 109.488C749.19 110.013 749.615 110.439 750.139 110.439Z" fill="#3F3D56"/>
<path d="M754.801 129.544C755.325 129.544 755.75 129.118 755.75 128.593C755.75 128.068 755.325 127.642 754.801 127.642C754.276 127.642 753.851 128.068 753.851 128.593C753.851 129.118 754.276 129.544 754.801 129.544Z" fill="#3F3D56"/>
<path d="M702.783 129.544C703.307 129.544 703.733 129.118 703.733 128.593C703.733 128.068 703.307 127.642 702.783 127.642C702.259 127.642 701.833 128.068 701.833 128.593C701.833 129.118 702.259 129.544 702.783 129.544Z" fill="#3F3D56"/>
<path d="M698.147 109.629H750.227V109.629H698.147V109.629Z" stroke="#3F3D56" stroke-width="0.4"/>
<g filter="url(#filter4_d)">
<rect x="530" y="66" width="112" height="100" rx="20" fill="#FCFCFC"/>
</g>
<path d="M632.104 90H571.023V141H632.104V90Z" fill="#3F3D56"/>
<path d="M613.721 98.3024H589.407V101.267H613.721V98.3024Z" fill="white"/>
<path d="M595.93 105.419H579.326V107.198H595.93V105.419Z" fill="white"/>
<path d="M609.57 117.279H592.965V119.058H609.57V117.279Z" fill="white"/>
<path d="M623.209 105.419H606.605V107.198H623.209V105.419Z" fill="white"/>
<path d="M560.349 98.3024H539V116.686H560.349V98.3024Z" fill="#3F3D56"/>
<path d="M557.384 108.384H541.965V109.57H557.384V108.384Z" fill="#6C63FF"/>
<path d="M557.384 110.163H541.965V111.349H557.384V110.163Z" fill="#6C63FF"/>
<path d="M557.384 111.942H541.965V113.128H557.384V111.942Z" fill="#6C63FF"/>
<path d="M557.384 102.453H541.965V103.047H557.384V102.453Z" fill="#6C63FF"/>
<path d="M557.384 104.233H541.965V104.826H557.384V104.233Z" fill="#6C63FF"/>
<path d="M557.384 106.012H541.965V107.198H557.384V106.012Z" fill="#6C63FF"/>
<path d="M623.802 111.349H579.326V113.128H623.802V111.349Z" fill="white"/>
<path d="M589.407 117.279H579.326V119.058H589.407V117.279Z" fill="#6C63FF"/>
<path d="M589.407 129.14H579.326V131.512H589.407V129.14Z" fill="white"/>
<path d="M623.209 117.279H613.721V119.058H623.209V117.279Z" fill="white"/>
<path d="M623.802 123.209H579.326V125.581H623.802V123.209Z" fill="white"/>
<path d="M623.802 129.14H597.709V131.512H623.802V129.14Z" fill="white"/>
<path d="M580.382 118.465L564.497 93.9197H553.826V93.5581H564.571L580.512 118.19L580.382 118.465Z" fill="#2F2E41"/>
<path d="M549.378 97.1163C550.852 97.1163 552.046 95.7887 552.046 94.1512C552.046 92.5136 550.852 91.186 549.378 91.186C547.904 91.186 546.709 92.5136 546.709 94.1512C546.709 95.7887 547.904 97.1163 549.378 97.1163Z" fill="#6C63FF"/>
<g filter="url(#filter5_d)">
<rect x="137" y="66" width="112" height="100" rx="20" fill="#FCFCFC"/>
</g>
<path d="M161.72 86V89.1029V142.028H225.743V89.1029V86H161.72Z" fill="url(#paint0_linear)"/>
<path d="M225.335 86H162.13V87.7924H225.335V86Z" fill="#535461"/>
<path d="M225.335 87.7417H162.13V140.814H225.335V87.7417Z" fill="#EDEDF4"/>
<path d="M163.306 87.178C163.476 87.178 163.613 87.0402 163.613 86.8703C163.613 86.7003 163.476 86.5625 163.306 86.5625C163.136 86.5625 162.999 86.7003 162.999 86.8703C162.999 87.0402 163.136 87.178 163.306 87.178Z" fill="#FA595F"/>
<path d="M164.225 87.178C164.395 87.178 164.533 87.0402 164.533 86.8703C164.533 86.7003 164.395 86.5625 164.225 86.5625C164.056 86.5625 163.918 86.7003 163.918 86.8703C163.918 87.0402 164.056 87.178 164.225 87.178Z" fill="#FFC74C"/>
<path d="M165.146 87.178C165.316 87.178 165.454 87.0402 165.454 86.8703C165.454 86.7003 165.316 86.5625 165.146 86.5625C164.977 86.5625 164.839 86.7003 164.839 86.8703C164.839 87.0402 164.977 87.178 165.146 87.178Z" fill="#85D459"/>
<path d="M217.971 90.8538H169.493V109.906H217.971V90.8538Z" fill="white"/>
<path d="M217.971 109.214V109.906H217.281" stroke="#6C63FF" stroke-miterlimit="10"/>
<path d="M215.935 109.906H170.856" stroke="#6C63FF" stroke-miterlimit="10" stroke-dasharray="11.69 11.69"/>
<path d="M170.184 109.906H169.493V109.214" stroke="#6C63FF" stroke-miterlimit="10"/>
<path d="M169.493 107.855V92.2255" stroke="#6C63FF" stroke-miterlimit="10" stroke-dasharray="11.79 11.79"/>
<path d="M169.493 91.5453V90.8538H170.184" stroke="#6C63FF" stroke-miterlimit="10"/>
<path d="M171.529 90.8538H216.607" stroke="#6C63FF" stroke-miterlimit="10" stroke-dasharray="11.69 11.69"/>
<path d="M217.281 90.8538H217.971V91.5453" stroke="#6C63FF" stroke-miterlimit="10"/>
<path d="M217.971 92.9043V108.534" stroke="#6C63FF" stroke-miterlimit="10" stroke-dasharray="11.79 11.79"/>
<path d="M206.107 112.569H181.357V113.593H206.107V112.569Z" fill="white"/>
<path d="M193.706 122.106H168.956V123.13H193.706V122.106Z" fill="white"/>
<path d="M193.706 124.359H168.956V125.384H193.706V124.359Z" fill="white"/>
<path d="M193.706 126.612H168.956V127.637H193.706V126.612Z" fill="white"/>
<path d="M193.706 128.866H168.956V129.891H193.706V128.866Z" fill="white"/>
<path d="M193.706 131.119H168.956V132.144H193.706V131.119Z" fill="white"/>
<path d="M193.706 133.373H168.956V134.397H193.706V133.373Z" fill="white"/>
<path d="M193.706 135.626H168.956V136.651H193.706V135.626Z" fill="white"/>
<path d="M199.05 114.617H188.413V115.642H199.05V114.617Z" fill="white"/>
<path opacity="0.5" d="M178.859 105.5C179.871 105.5 180.859 105.2 181.7 104.637C182.541 104.075 183.197 103.275 183.584 102.339C183.971 101.403 184.072 100.374 183.875 99.3802C183.677 98.3868 183.19 97.4742 182.475 96.758C181.76 96.0418 180.849 95.5541 179.857 95.3565C178.865 95.1589 177.837 95.2603 176.902 95.6479C175.968 96.0355 175.169 96.6919 174.608 97.5341C174.046 98.3763 173.746 99.3664 173.746 100.379C173.746 101.052 173.878 101.718 174.135 102.339C174.392 102.961 174.768 103.525 175.243 104.001C175.718 104.476 176.282 104.854 176.902 105.111C177.523 105.368 178.188 105.501 178.859 105.5ZM178.859 96.2493C179.675 96.2493 180.472 96.4916 181.15 96.9454C181.828 97.3992 182.357 98.0442 182.669 98.7988C182.981 99.5535 183.063 100.384 182.904 101.185C182.745 101.986 182.352 102.722 181.775 103.3C181.199 103.877 180.464 104.271 179.664 104.43C178.864 104.589 178.035 104.507 177.281 104.195C176.528 103.882 175.884 103.353 175.431 102.674C174.977 101.995 174.736 101.196 174.736 100.379C174.735 99.8369 174.842 99.2998 175.049 98.7986C175.256 98.2975 175.56 97.8422 175.943 97.4586C176.326 97.0751 176.781 96.7709 177.281 96.5634C177.781 96.3559 178.318 96.2492 178.859 96.2493ZM179.271 103.022H178.446C178.381 103.022 178.318 102.996 178.272 102.949C178.225 102.903 178.199 102.84 178.199 102.774V100.379H176.818C176.769 100.379 176.721 100.365 176.68 100.337C176.639 100.31 176.608 100.272 176.589 100.226C176.57 100.181 176.565 100.131 176.575 100.083C176.584 100.035 176.608 99.9909 176.643 99.9563L178.684 97.9115C178.731 97.8664 178.793 97.8412 178.857 97.8412C178.922 97.8412 178.983 97.8664 179.03 97.9115L181.071 99.9563C181.106 99.9909 181.13 100.035 181.139 100.083C181.149 100.131 181.144 100.181 181.125 100.226C181.106 100.272 181.075 100.31 181.034 100.337C180.993 100.365 180.945 100.379 180.896 100.379H179.515V102.774C179.515 102.839 179.49 102.902 179.444 102.948C179.399 102.994 179.337 103.021 179.272 103.022H179.271Z" fill="#6C63FF"/>
<path d="M164.087 126.717C165.353 131.354 159.952 144.564 159.952 144.564C159.952 144.564 148.588 135.948 147.322 131.308C147.013 130.203 146.925 129.048 147.064 127.909C147.202 126.77 147.564 125.67 148.129 124.671C148.694 123.673 149.45 122.796 150.354 122.091C151.259 121.387 152.293 120.868 153.398 120.566C154.504 120.263 155.658 120.182 156.794 120.328C157.931 120.474 159.027 120.843 160.021 121.415C161.014 121.987 161.885 122.749 162.583 123.659C163.281 124.569 163.792 125.609 164.087 126.717Z" fill="#6C63FF"/>
<path opacity="0.1" d="M164.087 126.717C165.353 131.354 159.952 144.564 159.952 144.564C159.952 144.564 148.588 135.948 147.322 131.308C147.013 130.203 146.925 129.048 147.064 127.909C147.202 126.77 147.564 125.67 148.129 124.671C148.694 123.673 149.45 122.796 150.354 122.091C151.259 121.387 152.293 120.868 153.398 120.566C154.504 120.263 155.658 120.182 156.794 120.328C157.931 120.474 159.027 120.843 160.021 121.415C161.014 121.987 161.885 122.749 162.583 123.659C163.281 124.569 163.792 125.609 164.087 126.717Z" fill="black"/>
<path d="M153.456 120.649C153.456 120.649 160.531 131.344 159.997 144.595" stroke="#535461" stroke-miterlimit="10"/>
<path d="M165.893 135.196C165.893 135.196 159.478 131.701 160.291 144.602C160.291 144.602 165.642 144.411 167.541 140.039C167.913 139.188 167.961 138.23 167.674 137.347C167.388 136.464 166.788 135.716 165.988 135.247L165.893 135.196Z" fill="#6C63FF"/>
<path d="M166.001 135.218C166.001 135.218 165.173 141.915 160.294 144.602" stroke="#535461" stroke-miterlimit="10"/>
<g opacity="0.1">
<path opacity="0.1" d="M233.226 118.229C233.24 118.211 233.247 118.199 233.247 118.199L233.226 118.229Z" fill="url(#paint1_linear)"/>
</g>
<path d="M189.341 95.4685V115.283H194.572H197.339H198.754H200.043H201.908H202.32H206.315H207.782H208.884H209.603H209.624H209.661H210.189H211.289H211.717H211.763H211.774H211.8H211.857H212.758H212.816H212.83H214.576H214.631H214.7H216.754H217.366H218.833H222.056H225.725H226.424H226.553H226.673H227.412H227.519H228.927H230.781H231.678H233.513H238.432V95.4685H189.341Z" fill="url(#paint2_linear)"/>
<path d="M238.074 95.7694H189.596V114.822H238.074V95.7694Z" fill="white"/>
<g opacity="0.6">
<path opacity="0.3" d="M233.216 107.095V114.822H194.762V103.104H195.969V100.118H200.56V103.104H201.809V112.055H203.419V109.152H205.352V112.055H206.963V107.095H207.043V104.515H208.574V107.095H212.116V110.967H214.089V109.757H215.299V110.967H217.271V99.5132H219.848V97.699H220.291V99.5132H221.015V103.104H222.304V100.118H223.391V97.0535H225.647V100.118H226.733V103.104H228.062V107.095H229.874V104.515H231.405V107.095H233.216Z" fill="#6C63FF"/>
<path opacity="0.4" d="M197.218 104.03H195.527V104.999H197.218V104.03Z" fill="white"/>
<path opacity="0.4" d="M199.312 104.997H201.003V104.029H199.312V104.997Z" fill="white"/>
<path opacity="0.4" d="M197.218 105.925H195.527V106.894H197.218V105.925Z" fill="white"/>
<path opacity="0.4" d="M199.312 106.894H201.003V105.925H199.312V106.894Z" fill="white"/>
<path opacity="0.4" d="M197.218 107.822H195.527V108.79H197.218V107.822Z" fill="white"/>
<path opacity="0.4" d="M199.312 108.789H201.003V107.82H199.312V108.789Z" fill="white"/>
<path opacity="0.4" d="M197.218 109.716H195.527V110.685H197.218V109.716Z" fill="white"/>
<path opacity="0.4" d="M199.312 110.685H201.003V109.716H199.312V110.685Z" fill="white"/>
<path opacity="0.4" d="M197.218 111.613H195.527V112.581H197.218V111.613Z" fill="white"/>
<path opacity="0.4" d="M199.312 112.581H201.003V111.613H199.312V112.581Z" fill="white"/>
<path opacity="0.4" d="M197.218 113.508H195.527V114.476H197.218V113.508Z" fill="white"/>
<path opacity="0.4" d="M199.312 114.475H201.003V113.506H199.312V114.475Z" fill="white"/>
<path opacity="0.4" d="M206.358 113.023H202.412V113.508H206.358V113.023Z" fill="white"/>
<path opacity="0.4" d="M206.358 113.75H202.412V114.234H206.358V113.75Z" fill="white"/>
<path opacity="0.4" d="M206.358 114.474H202.413V114.82H206.358V114.474Z" fill="white"/>
<path opacity="0.4" d="M216.667 113.266H212.72V113.75H216.667V113.266Z" fill="white"/>
<path opacity="0.4" d="M216.667 113.992H212.72V114.476H216.667V113.992Z" fill="white"/>
<path opacity="0.4" d="M216.666 114.718H212.72V114.822H216.666V114.718Z" fill="white"/>
<path opacity="0.4" d="M208.896 108.023H207.808V109.435H208.896V108.023Z" fill="white"/>
<path opacity="0.4" d="M210.183 109.435H211.27V108.023H210.183V109.435Z" fill="white"/>
<path opacity="0.4" d="M208.896 110.281H207.808V111.693H208.896V110.281Z" fill="white"/>
<path opacity="0.4" d="M210.183 111.692H211.27V110.28H210.183V111.692Z" fill="white"/>
<path opacity="0.4" d="M208.896 112.539H207.808V113.951H208.896V112.539Z" fill="white"/>
<path opacity="0.4" d="M210.183 113.951H211.27V112.539H210.183V113.951Z" fill="white"/>
<path opacity="0.4" d="M208.895 114.797H207.807V114.82H208.895V114.797Z" fill="white"/>
<path opacity="0.4" d="M211.272 114.797H210.184V114.82H211.272V114.797Z" fill="white"/>
<path opacity="0.4" d="M218.721 100.441H217.271V102.296H218.721V100.441Z" fill="white"/>
<path opacity="0.4" d="M218.721 103.103H217.271V104.957H218.721V103.103Z" fill="white"/>
<path opacity="0.4" d="M218.721 105.764H217.271V107.619H218.721V105.764Z" fill="white"/>
<path opacity="0.4" d="M218.721 108.427H217.271V110.281H218.721V108.427Z" fill="white"/>
<path opacity="0.4" d="M218.721 111.088H217.271V112.943H218.721V111.088Z" fill="white"/>
<path opacity="0.4" d="M218.72 113.75H217.271V114.821H218.72V113.75Z" fill="white"/>
<path opacity="0.4" d="M227.237 104.232H221.841V105.804H227.237V104.232Z" fill="white"/>
<path opacity="0.4" d="M227.257 107.62H221.861V109.192H227.257V107.62Z" fill="white"/>
<path opacity="0.4" d="M227.277 111.007H221.882V112.58H227.277V111.007Z" fill="white"/>
<path opacity="0.4" d="M226.462 114.822H227.191H227.297V114.644V114.44V114.395H227.283H226.537H226.196H221.901V114.822H225.525H226.216H226.343H226.462Z" fill="white"/>
<path opacity="0.4" d="M196.695 100.966H195.97V102.499H196.695V100.966Z" fill="white"/>
<path opacity="0.4" d="M233.216 108.023H231.405V110.362H233.216V108.023Z" fill="white"/>
<path opacity="0.4" d="M233.216 111.411H231.405V113.75H233.216V111.411Z" fill="white"/>
<path opacity="0.4" d="M233.217 114.797H231.405V114.82H233.217V114.797Z" fill="white"/>
<path opacity="0.1" d="M205.419 98.9761H205.142C205.168 98.9781 205.195 98.9746 205.221 98.9658C205.246 98.957 205.269 98.943 205.289 98.9248C205.308 98.9065 205.324 98.8844 205.335 98.8598C205.346 98.8352 205.351 98.8087 205.351 98.7818C205.351 98.755 205.346 98.7284 205.335 98.7038C205.324 98.6792 205.308 98.6571 205.289 98.6389C205.269 98.6207 205.246 98.6067 205.221 98.5979C205.195 98.589 205.168 98.5855 205.142 98.5876H202.897C202.871 98.5855 202.844 98.589 202.818 98.5979C202.793 98.6067 202.77 98.6207 202.75 98.6389C202.731 98.6571 202.715 98.6792 202.704 98.7038C202.693 98.7284 202.688 98.755 202.688 98.7818C202.688 98.8087 202.693 98.8352 202.704 98.8598C202.715 98.8844 202.731 98.9065 202.75 98.9248C202.77 98.943 202.793 98.957 202.818 98.9658C202.844 98.9746 202.871 98.9781 202.897 98.9761H203.175C203.148 98.974 203.121 98.9775 203.096 98.9863C203.071 98.9951 203.047 99.0091 203.028 99.0273C203.008 99.0456 202.992 99.0677 202.982 99.0923C202.971 99.1169 202.965 99.1434 202.965 99.1703C202.965 99.1971 202.971 99.2237 202.982 99.2483C202.992 99.2729 203.008 99.295 203.028 99.3132C203.047 99.3314 203.071 99.3454 203.096 99.3542C203.121 99.3631 203.148 99.3666 203.175 99.3645H202.787C202.76 99.3624 202.733 99.3659 202.708 99.3747C202.683 99.3836 202.659 99.3975 202.64 99.4158C202.62 99.434 202.604 99.4561 202.594 99.4807C202.583 99.5053 202.577 99.5319 202.577 99.5587C202.577 99.5856 202.583 99.6121 202.594 99.6367C202.604 99.6613 202.62 99.6834 202.64 99.7017C202.659 99.7199 202.683 99.7339 202.708 99.7427C202.733 99.7515 202.76 99.755 202.787 99.7529H205.031C205.08 99.7492 205.126 99.7271 205.159 99.6911C205.192 99.6551 205.211 99.6078 205.211 99.5587C205.211 99.5096 205.192 99.4624 205.159 99.4264C205.126 99.3904 205.08 99.3683 205.031 99.3645H205.419C205.468 99.3607 205.514 99.3386 205.547 99.3026C205.58 99.2666 205.599 99.2193 205.599 99.1703C205.599 99.1212 205.58 99.0739 205.547 99.0379C205.514 99.0019 205.468 98.9798 205.419 98.9761Z" fill="#252223"/>
<path opacity="0.1" d="M215.325 103.856H215.048C215.097 103.853 215.142 103.83 215.176 103.794C215.209 103.758 215.227 103.711 215.227 103.662C215.227 103.613 215.209 103.566 215.176 103.53C215.142 103.494 215.097 103.472 215.048 103.468H212.804C212.755 103.472 212.709 103.494 212.676 103.53C212.643 103.566 212.624 103.613 212.624 103.662C212.624 103.711 212.643 103.758 212.676 103.794C212.709 103.83 212.755 103.853 212.804 103.856H213.081C213.054 103.854 213.027 103.858 213.002 103.867C212.977 103.875 212.954 103.889 212.934 103.908C212.914 103.926 212.899 103.948 212.888 103.973C212.877 103.997 212.872 104.024 212.872 104.051C212.872 104.077 212.877 104.104 212.888 104.129C212.899 104.153 212.914 104.175 212.934 104.193C212.954 104.212 212.977 104.226 213.002 104.235C213.027 104.243 213.054 104.247 213.081 104.245H212.693C212.644 104.249 212.599 104.271 212.565 104.307C212.532 104.343 212.514 104.39 212.514 104.439C212.514 104.488 212.532 104.535 212.565 104.571C212.599 104.607 212.644 104.629 212.693 104.633H214.937C214.986 104.629 215.032 104.607 215.065 104.571C215.098 104.535 215.117 104.488 215.117 104.439C215.117 104.39 215.098 104.343 215.065 104.307C215.032 104.271 214.986 104.249 214.937 104.245H215.325C215.352 104.247 215.379 104.243 215.404 104.235C215.429 104.226 215.453 104.212 215.472 104.193C215.492 104.175 215.508 104.153 215.518 104.129C215.529 104.104 215.535 104.077 215.535 104.051C215.535 104.024 215.529 103.997 215.518 103.973C215.508 103.948 215.492 103.926 215.472 103.908C215.453 103.889 215.429 103.875 215.404 103.867C215.379 103.858 215.352 103.854 215.325 103.856Z" fill="#252223"/>
<path opacity="0.1" d="M232.197 97.4845H231.92C231.969 97.4807 232.014 97.4586 232.048 97.4226C232.081 97.3866 232.1 97.3393 232.1 97.2903C232.1 97.2412 232.081 97.1939 232.048 97.1579C232.014 97.1219 231.969 97.0998 231.92 97.096H229.676C229.649 97.094 229.622 97.0975 229.597 97.1063C229.571 97.1151 229.548 97.1291 229.529 97.1473C229.509 97.1656 229.493 97.1877 229.482 97.2123C229.472 97.2369 229.466 97.2634 229.466 97.2903C229.466 97.3171 229.472 97.3437 229.482 97.3682C229.493 97.3928 229.509 97.415 229.529 97.4332C229.548 97.4514 229.571 97.4654 229.597 97.4742C229.622 97.4831 229.649 97.4865 229.676 97.4845H229.953C229.926 97.4824 229.899 97.4859 229.874 97.4947C229.849 97.5036 229.826 97.5175 229.806 97.5358C229.786 97.554 229.771 97.5761 229.76 97.6007C229.749 97.6253 229.744 97.6519 229.744 97.6787C229.744 97.7055 229.749 97.7321 229.76 97.7567C229.771 97.7813 229.786 97.8034 229.806 97.8216C229.826 97.8399 229.849 97.8538 229.874 97.8627C229.899 97.8715 229.926 97.875 229.953 97.8729H229.567C229.541 97.8709 229.514 97.8743 229.489 97.8832C229.463 97.892 229.44 97.906 229.42 97.9242C229.401 97.9424 229.385 97.9646 229.374 97.9891C229.364 98.0137 229.358 98.0403 229.358 98.0671C229.358 98.094 229.364 98.1205 229.374 98.1451C229.385 98.1697 229.401 98.1918 229.42 98.2101C229.44 98.2283 229.463 98.2423 229.489 98.2511C229.514 98.2599 229.541 98.2634 229.567 98.2614H231.812C231.861 98.2576 231.906 98.2355 231.94 98.1995C231.973 98.1635 231.991 98.1162 231.991 98.0671C231.991 98.0181 231.973 97.9708 231.94 97.9348C231.906 97.8988 231.861 97.8767 231.812 97.8729H232.2C232.248 97.8691 232.294 97.847 232.327 97.811C232.361 97.775 232.379 97.7278 232.379 97.6787C232.379 97.6296 232.361 97.5824 232.327 97.5464C232.294 97.5103 232.248 97.4882 232.2 97.4845H232.197Z" fill="#252223"/>
<path opacity="0.6" d="M210.772 111.418L210.722 111.454C210.74 111.444 210.757 111.432 210.772 111.418Z" fill="url(#paint3_linear)"/>
<path opacity="0.6" d="M210.809 111.456L210.759 111.492C210.778 111.483 210.794 111.47 210.809 111.456Z" fill="url(#paint4_linear)"/>
<path opacity="0.6" d="M210.809 111.418L210.759 111.454C210.778 111.444 210.794 111.432 210.809 111.418Z" fill="url(#paint5_linear)"/>
<path opacity="0.6" d="M208.801 110.737C208.829 110.723 208.837 110.683 208.819 110.646C208.801 110.61 208.765 110.591 208.737 110.604C208.71 110.617 208.702 110.658 208.719 110.694C208.737 110.731 208.774 110.75 208.801 110.737Z" fill="#F2F2F2"/>
</g>
<path d="M224.769 121.452L224.749 121.479L224.769 121.452Z" fill="#D39999"/>
<path d="M217.435 124.256H205.161V132.451H217.435V124.256Z" fill="white"/>
<path d="M230.012 145.088C230.012 145.088 227.855 137.754 230.416 132.357C231.504 130.102 231.832 127.554 231.352 125.096C231.114 123.93 230.77 122.788 230.324 121.685" stroke="#535461" stroke-width="2" stroke-miterlimit="10"/>
<path d="M231.922 118.267C231.922 119.166 230.297 121.772 230.297 121.772C230.297 121.772 228.672 119.166 228.672 118.267C228.672 117.836 228.844 117.422 229.148 117.116C229.453 116.811 229.866 116.64 230.297 116.64C230.728 116.64 231.142 116.811 231.447 117.116C231.751 117.422 231.922 117.836 231.922 118.267Z" fill="#6C63FF"/>
<path d="M234.609 123.247C234.121 124.002 231.342 125.304 231.342 125.304C231.342 125.304 231.393 122.232 231.881 121.477C232.118 121.122 232.486 120.875 232.904 120.789C233.322 120.703 233.757 120.785 234.115 121.017C234.473 121.249 234.726 121.613 234.818 122.03C234.91 122.448 234.835 122.885 234.609 123.247Z" fill="#6C63FF"/>
<path d="M234.491 131.753C233.686 132.158 230.635 131.879 230.635 131.879C230.635 131.879 232.226 129.252 233.029 128.847C233.22 128.745 233.429 128.683 233.645 128.663C233.86 128.643 234.078 128.667 234.284 128.732C234.491 128.798 234.682 128.904 234.847 129.045C235.011 129.185 235.147 129.357 235.244 129.551C235.341 129.745 235.399 129.956 235.414 130.172C235.429 130.389 235.401 130.606 235.33 130.811C235.26 131.016 235.15 131.205 235.006 131.367C234.862 131.529 234.687 131.66 234.491 131.753Z" fill="#6C63FF"/>
<path d="M232.955 138.171C232.233 138.706 229.175 138.947 229.175 138.947C229.175 138.947 230.301 136.088 231.022 135.555C231.194 135.423 231.389 135.326 231.598 135.271C231.807 135.215 232.025 135.202 232.239 135.232C232.453 135.262 232.659 135.335 232.845 135.445C233.03 135.556 233.192 135.702 233.321 135.876C233.449 136.05 233.542 136.248 233.593 136.458C233.644 136.669 233.653 136.887 233.619 137.101C233.585 137.314 233.509 137.519 233.395 137.703C233.281 137.887 233.131 138.046 232.955 138.171Z" fill="#6C63FF"/>
<path d="M227.93 125.478C228.573 126.104 231.573 126.753 231.573 126.753C231.573 126.753 230.838 123.77 230.192 123.143C229.881 122.849 229.468 122.689 229.04 122.697C228.613 122.706 228.207 122.883 227.909 123.19C227.611 123.497 227.446 123.909 227.449 124.337C227.452 124.765 227.624 125.175 227.927 125.477L227.93 125.478Z" fill="#6C63FF"/>
<path d="M226.229 133.006C227.035 133.411 230.086 133.132 230.086 133.132C230.086 133.132 228.494 130.505 227.692 130.1C227.308 129.918 226.869 129.892 226.467 130.03C226.065 130.168 225.733 130.457 225.542 130.837C225.351 131.217 225.316 131.657 225.444 132.062C225.573 132.467 225.854 132.806 226.229 133.006Z" fill="#6C63FF"/>
<path d="M225.578 140.549C226.299 141.084 229.357 141.325 229.357 141.325C229.357 141.325 228.232 138.466 227.51 137.933C227.163 137.686 226.733 137.585 226.313 137.653C225.893 137.72 225.516 137.949 225.263 138.292C225.01 138.635 224.901 139.063 224.96 139.485C225.019 139.907 225.24 140.289 225.578 140.549Z" fill="#6C63FF"/>
<path d="M222.089 141.036C222.089 141.036 220.733 136.425 222.343 133.032C223.028 131.613 223.234 130.01 222.931 128.464C222.782 127.731 222.566 127.013 222.286 126.32" stroke="#535461" stroke-width="2" stroke-miterlimit="10"/>
<path d="M223.287 124.175C223.287 124.739 222.265 126.379 222.265 126.379C222.265 126.379 221.243 124.739 221.243 124.175C221.252 123.909 221.363 123.658 221.554 123.473C221.745 123.289 221.999 123.185 222.264 123.185C222.53 123.185 222.784 123.289 222.975 123.473C223.165 123.658 223.277 123.909 223.286 124.175H223.287Z" fill="#6C63FF"/>
<path d="M224.977 127.304C224.671 127.778 222.923 128.597 222.923 128.597C222.923 128.597 222.956 126.665 223.262 126.192C223.333 126.075 223.426 125.973 223.537 125.893C223.648 125.812 223.774 125.755 223.907 125.724C224.041 125.694 224.179 125.69 224.313 125.714C224.448 125.738 224.577 125.788 224.691 125.863C224.806 125.937 224.905 126.034 224.982 126.148C225.059 126.261 225.112 126.389 225.138 126.523C225.165 126.657 225.164 126.796 225.137 126.93C225.109 127.064 225.054 127.191 224.977 127.304Z" fill="#6C63FF"/>
<path d="M224.902 132.652C224.398 132.907 222.477 132.731 222.477 132.731C222.477 132.731 223.478 131.079 223.981 130.825C224.222 130.711 224.498 130.696 224.75 130.782C225.003 130.869 225.211 131.051 225.331 131.289C225.451 131.528 225.474 131.804 225.394 132.058C225.313 132.313 225.137 132.526 224.902 132.652Z" fill="#6C63FF"/>
<path d="M223.936 136.687C223.483 137.023 221.56 137.174 221.56 137.174C221.56 137.174 222.267 135.377 222.721 135.042C222.939 134.89 223.208 134.829 223.47 134.872C223.733 134.915 223.968 135.059 224.126 135.273C224.284 135.487 224.353 135.754 224.317 136.018C224.282 136.282 224.145 136.522 223.936 136.687Z" fill="#6C63FF"/>
<path d="M220.778 128.707C221.183 129.101 223.069 129.514 223.069 129.514C223.069 129.514 222.608 127.638 222.202 127.244C222.107 127.145 221.993 127.067 221.867 127.013C221.741 126.959 221.605 126.931 221.468 126.931C221.331 126.93 221.195 126.958 221.069 127.011C220.943 127.064 220.828 127.142 220.733 127.241C220.637 127.339 220.562 127.456 220.513 127.584C220.463 127.712 220.44 127.849 220.444 127.986C220.448 128.123 220.48 128.258 220.538 128.383C220.595 128.507 220.677 128.619 220.778 128.711V128.707Z" fill="#6C63FF"/>
<path d="M219.708 133.44C220.212 133.694 222.133 133.518 222.133 133.518C222.133 133.518 221.131 131.866 220.628 131.613C220.387 131.498 220.111 131.483 219.859 131.569C219.607 131.656 219.398 131.838 219.278 132.076C219.158 132.315 219.136 132.591 219.216 132.845C219.296 133.1 219.473 133.313 219.708 133.44Z" fill="#6C63FF"/>
<path d="M219.299 138.182C219.753 138.518 221.676 138.669 221.676 138.669C221.676 138.669 220.968 136.872 220.514 136.537C220.407 136.452 220.284 136.39 220.152 136.354C220.02 136.318 219.882 136.309 219.746 136.327C219.611 136.345 219.48 136.39 219.363 136.46C219.245 136.53 219.142 136.622 219.061 136.732C218.98 136.843 218.921 136.968 218.889 137.101C218.857 137.234 218.852 137.372 218.874 137.507C218.896 137.643 218.945 137.772 219.018 137.888C219.091 138.003 219.187 138.103 219.299 138.182Z" fill="#6C63FF"/>
<g filter="url(#filter6_d)">
<rect x="268" y="66" width="112" height="100" rx="20" fill="#FCFCFC"/>
</g>
<path d="M368.831 87H280V144H368.831V87Z" fill="#E6E6E6"/>
<path d="M366.61 94.4026H282.221V140.299H366.61V94.4026Z" fill="white"/>
<path d="M368.831 87H280V90.7013H368.831V87Z" fill="#6C63FF"/>
<path d="M342.714 98.8441H315.741C315.683 98.8323 315.63 98.7882 315.592 98.7201C315.554 98.6521 315.533 98.5646 315.533 98.474C315.533 98.3834 315.554 98.296 315.592 98.2279C315.63 98.1598 315.683 98.1157 315.741 98.1039H342.714C342.772 98.1157 342.824 98.1598 342.863 98.2279C342.901 98.296 342.922 98.3834 342.922 98.474C342.922 98.5646 342.901 98.6521 342.863 98.7201C342.824 98.7882 342.772 98.8323 342.714 98.8441Z" fill="#CCCCCC"/>
<path d="M323.465 104.026H306.119C306.061 104.014 306.008 103.97 305.969 103.902C305.93 103.834 305.909 103.746 305.909 103.656C305.909 103.565 305.93 103.478 305.969 103.41C306.008 103.342 306.061 103.297 306.119 103.286H323.465C323.523 103.297 323.576 103.342 323.615 103.41C323.654 103.478 323.675 103.565 323.675 103.656C323.675 103.746 323.654 103.834 323.615 103.902C323.576 103.97 323.523 104.014 323.465 104.026Z" fill="#CCCCCC"/>
<path d="M331.616 104.026H326.839C326.783 104.014 326.731 103.97 326.694 103.902C326.657 103.834 326.636 103.746 326.636 103.656C326.636 103.565 326.657 103.478 326.694 103.41C326.731 103.342 326.783 103.297 326.839 103.286H331.616C331.672 103.297 331.723 103.342 331.76 103.41C331.797 103.478 331.818 103.565 331.818 103.656C331.818 103.746 331.797 103.834 331.76 103.902C331.723 103.97 331.672 104.014 331.616 104.026Z" fill="#CCCCCC"/>
<path d="M311.6 98.8441H306.14C306.076 98.8323 306.018 98.7882 305.975 98.7201C305.932 98.6521 305.909 98.5646 305.909 98.474C305.909 98.3834 305.932 98.296 305.975 98.2279C306.018 98.1598 306.076 98.1157 306.14 98.1039H311.6C311.664 98.1157 311.722 98.1598 311.765 98.2279C311.808 98.296 311.831 98.3834 311.831 98.474C311.831 98.5646 311.808 98.6521 311.765 98.7201C311.722 98.7882 311.664 98.8323 311.6 98.8441Z" fill="#CCCCCC"/>
<path d="M323.465 129.195H306.119C306.061 129.183 306.008 129.139 305.969 129.071C305.93 129.003 305.909 128.915 305.909 128.825C305.909 128.734 305.93 128.647 305.969 128.579C306.008 128.51 306.061 128.466 306.119 128.455H323.465C323.523 128.466 323.576 128.51 323.615 128.579C323.654 128.647 323.675 128.734 323.675 128.825C323.675 128.915 323.654 129.003 323.615 129.071C323.576 129.139 323.523 129.183 323.465 129.195H323.465Z" fill="#CCCCCC"/>
<path d="M323.465 134.377H306.119C306.061 134.365 306.008 134.321 305.969 134.253C305.93 134.185 305.909 134.097 305.909 134.006C305.909 133.916 305.93 133.828 305.969 133.76C306.008 133.692 306.061 133.648 306.119 133.636H323.465C323.523 133.648 323.576 133.692 323.615 133.76C323.654 133.828 323.675 133.916 323.675 134.006C323.675 134.097 323.654 134.185 323.615 134.253C323.576 134.321 323.523 134.365 323.465 134.377H323.465Z" fill="#CCCCCC"/>
<path d="M330.875 134.377H326.098C326.042 134.365 325.991 134.321 325.954 134.253C325.916 134.185 325.896 134.097 325.896 134.006C325.896 133.916 325.916 133.828 325.954 133.76C325.991 133.692 326.042 133.648 326.098 133.636H330.875C330.931 133.648 330.983 133.692 331.02 133.76C331.057 133.828 331.078 133.916 331.078 134.006C331.078 134.097 331.057 134.185 331.02 134.253C330.983 134.321 330.931 134.365 330.875 134.377Z" fill="#CCCCCC"/>
<path d="M339.73 134.377H334.27C334.206 134.365 334.148 134.321 334.105 134.253C334.062 134.185 334.039 134.097 334.039 134.006C334.039 133.916 334.062 133.828 334.105 133.76C334.148 133.692 334.206 133.648 334.27 133.636H339.73C339.794 133.648 339.853 133.692 339.895 133.76C339.938 133.828 339.961 133.916 339.961 134.006C339.961 134.097 339.938 134.185 339.895 134.253C339.853 134.321 339.794 134.365 339.73 134.377Z" fill="#CCCCCC"/>
<path d="M342.714 131.416H315.741C315.683 131.404 315.63 131.36 315.592 131.292C315.554 131.223 315.533 131.136 315.533 131.045C315.533 130.955 315.554 130.867 315.592 130.799C315.63 130.731 315.683 130.687 315.741 130.675H342.714C342.772 130.687 342.824 130.731 342.863 130.799C342.901 130.867 342.922 130.955 342.922 131.045C342.922 131.136 342.901 131.223 342.863 131.292C342.824 131.36 342.772 131.404 342.714 131.416Z" fill="#CCCCCC"/>
<path d="M311.6 131.416H306.14C306.076 131.404 306.018 131.36 305.975 131.292C305.932 131.223 305.909 131.136 305.909 131.045C305.909 130.955 305.932 130.867 305.975 130.799C306.018 130.731 306.076 130.687 306.14 130.675H311.6C311.664 130.687 311.722 130.731 311.765 130.799C311.808 130.867 311.831 130.955 311.831 131.045C311.831 131.136 311.808 131.223 311.765 131.292C311.722 131.36 311.664 131.404 311.6 131.416Z" fill="#CCCCCC"/>
<path d="M319.185 110.688L312.572 117.351L319.185 124.013L320.673 122.495L315.672 117.393L320.714 112.249L319.185 110.688Z" fill="#E6E6E6"/>
<path d="M329.647 110.688L336.26 117.351L329.647 124.013L328.158 122.495L333.16 117.393L328.117 112.249L329.647 110.688Z" fill="#E6E6E6"/>
<path d="M319.185 110.688L312.572 117.351L319.185 124.013L320.673 122.495L315.672 117.393L320.714 112.249L319.185 110.688Z" fill="#6C63FF"/>
<path d="M329.647 110.688L336.26 117.351L329.647 124.013L328.158 122.495L333.16 117.393L328.117 112.249L329.647 110.688Z" fill="#6C63FF"/>
<g filter="url(#filter7_d)">
<rect x="399" y="66" width="112" height="100" rx="20" fill="#FCFCFC"/>
</g>
<g filter="url(#filter8_d)">
<rect width="14.6774" height="14.6774" rx="5" transform="matrix(-1 0 0 1 483.709 135)" fill="#FFFFFA"/>
</g>
<line x1="476.846" y1="139.194" x2="476.846" y2="145.484" stroke="#7C33FF" stroke-width="2"/>
<line x1="473.225" y1="141.863" x2="479.515" y2="141.863" stroke="#7C33FF" stroke-width="2"/>
<g filter="url(#filter9_d)">
<rect width="14.6774" height="14.6774" rx="5" transform="matrix(-1 0 0 1 439.677 135)" fill="#FFFFFA"/>
</g>
<line x1="429.669" y1="142.387" x2="435.008" y2="142.387" stroke="#7C33FF" stroke-width="2" stroke-linecap="round" stroke-linejoin="round"/>
<path d="M461.058 122.565H448.661V126.941H450.038V129.129H459.681V126.941H461.058V122.565Z" fill="url(#paint6_linear)"/>
<path d="M455.276 91.8111V106.8C456.76 107.247 457.41 107.704 457.776 108.678C458.095 109.553 458.15 110.504 457.932 111.41C457.698 112.416 457.267 112.953 456.095 113.265C455.432 113.445 454.736 113.47 454.061 113.337C452.442 113.007 451.59 111.899 451.59 110.062C451.59 108.304 452.192 107.371 453.846 106.816V104.001L453.774 91.7385L441.617 109.89C441.617 109.89 447.436 114.773 449.564 124.198H459.454C459.454 124.198 462.432 113.256 467.402 110.563L455.276 91.8111Z" fill="#E6E6E6"/>
<path d="M455.495 92.5422V106.451C456.44 106.612 457.293 107.113 457.897 107.86C458.5 108.608 458.811 109.55 458.771 110.511C458.732 111.472 458.345 112.386 457.683 113.081C457.021 113.776 456.129 114.205 455.175 114.288C454.22 114.371 453.269 114.101 452.498 113.529C451.727 112.958 451.19 112.124 450.988 111.184C450.786 110.244 450.932 109.262 451.399 108.422C451.866 107.582 452.622 106.942 453.525 106.622V92.5422L442.356 109.689C442.356 109.689 448.268 114.966 450.239 124.199H458.78C458.78 124.199 462.064 112.985 466.663 110.349L455.495 92.5422Z" fill="#E6E6E6"/>
<path d="M455.495 92.5422V106.451C456.44 106.612 457.293 107.113 457.897 107.86C458.5 108.608 458.811 109.55 458.771 110.511C458.732 111.472 458.345 112.386 457.683 113.081C457.021 113.776 456.129 114.205 455.175 114.288C454.22 114.371 453.269 114.101 452.498 113.529C451.727 112.958 451.19 112.124 450.988 111.184C450.786 110.244 450.932 109.262 451.399 108.422C451.866 107.582 452.622 106.942 453.525 106.622V92.5422L442.356 109.689C442.356 109.689 448.268 114.966 450.239 124.199H458.78C458.78 124.199 462.064 112.985 466.663 110.349L455.495 92.5422Z" stroke="black"/>
<path d="M453.524 85.288H427.25V86.607H453.524V85.288Z" fill="#E6E6E6"/>
<path d="M483.084 85.288H456.809V86.607H483.084V85.288Z" fill="#E6E6E6"/>
<path d="M459.437 125.517H450.24V128.814H459.437V125.517Z" fill="#6C63FF"/>
<path d="M457.64 83.0819H452.634V88.1086H457.64V83.0819Z" fill="url(#paint7_linear)"/>
<path d="M457.466 83.3091H452.868V87.9253H457.466V83.3091Z" fill="#6C63FF"/>
<path d="M425.935 88.8943C427.557 88.8943 428.871 87.5748 428.871 85.9471C428.871 84.3195 427.557 83 425.935 83C424.314 83 423 84.3195 423 85.9471C423 87.5748 424.314 88.8943 425.935 88.8943Z" fill="url(#paint8_linear)"/>
<path d="M485.064 88.8943C486.685 88.8943 487.999 87.5748 487.999 85.9471C487.999 84.3195 486.685 83 485.064 83C483.443 83 482.128 84.3195 482.128 85.9471C482.128 87.5748 483.443 88.8943 485.064 88.8943Z" fill="url(#paint9_linear)"/>
<path d="M425.936 88.5852C427.387 88.5852 428.563 87.4041 428.563 85.9471C428.563 84.4902 427.387 83.3091 425.936 83.3091C424.484 83.3091 423.308 84.4902 423.308 85.9471C423.308 87.4041 424.484 88.5852 425.936 88.5852Z" fill="#6C63FF"/>
<path d="M485.054 88.5852C486.505 88.5852 487.682 87.4041 487.682 85.9471C487.682 84.4902 486.505 83.3091 485.054 83.3091C483.603 83.3091 482.427 84.4902 482.427 85.9471C482.427 87.4041 483.603 88.5852 485.054 88.5852Z" fill="#6C63FF"/>
<path d="M460.75 122.879H448.926V126.836H460.75V122.879Z" fill="#6C63FF"/>
<path opacity="0.2" d="M460.75 122.879H448.926V126.836H460.75V122.879Z" fill="black"/>
<line x1="61" y1="54.5" x2="849" y2="54.5" stroke="#D8D8D8" stroke-width="5" stroke-linejoin="round"/>
<circle cx="61.5" cy="54.5" r="5.5" fill="#6C63FF"/>
<circle cx="191.5" cy="54.5" r="3.5" fill="#A8A8A8"/>
<circle cx="324.5" cy="54.5" r="3.5" fill="#A8A8A8"/>
<circle cx="455.5" cy="54.5" r="3.5" fill="#A8A8A8"/>
<circle cx="584.5" cy="54.5" r="3.5" fill="#A8A8A8"/>
<circle cx="715.5" cy="54.5" r="3.5" fill="#A8A8A8"/>
<circle cx="848.5" cy="54.5" r="3.5" fill="#A8A8A8"/>
<defs>
<filter id="filter0_d" x="0" y="64" width="124" height="112" filterUnits="userSpaceOnUse" color-interpolation-filters="sRGB">
<feFlood flood-opacity="0" result="BackgroundImageFix"/>
<feColorMatrix in="SourceAlpha" type="matrix" values="0 0 0 0 0 0 0 0 0 0 0 0 0 0 0 0 0 0 127 0"/>
<feOffset dy="4"/>
<feGaussianBlur stdDeviation="2"/>
<feColorMatrix type="matrix" values="0 0 0 0 0 0 0 0 0 0 0 0 0 0 0 0 0 0 0.1 0"/>
<feBlend mode="normal" in2="BackgroundImageFix" result="effect1_dropShadow"/>
<feBlend mode="normal" in="SourceGraphic" in2="effect1_dropShadow" result="shape"/>
</filter>
<filter id="filter1_d" x="2" y="66" width="120" height="108" filterUnits="userSpaceOnUse" color-interpolation-filters="sRGB">
<feFlood flood-opacity="0" result="BackgroundImageFix"/>
<feColorMatrix in="SourceAlpha" type="matrix" values="0 0 0 0 0 0 0 0 0 0 0 0 0 0 0 0 0 0 127 0"/>
<feOffset dy="4"/>
<feGaussianBlur stdDeviation="2"/>
<feColorMatrix type="matrix" values="0 0 0 0 0 0 0 0 0 0 0 0 0 0 0 0 0 0 0.1 0"/>
<feBlend mode="normal" in2="BackgroundImageFix" result="effect1_dropShadow"/>
<feBlend mode="normal" in="SourceGraphic" in2="effect1_dropShadow" result="shape"/>
</filter>
<filter id="filter2_d" x="788" y="66" width="120" height="108" filterUnits="userSpaceOnUse" color-interpolation-filters="sRGB">
<feFlood flood-opacity="0" result="BackgroundImageFix"/>
<feColorMatrix in="SourceAlpha" type="matrix" values="0 0 0 0 0 0 0 0 0 0 0 0 0 0 0 0 0 0 127 0"/>
<feOffset dy="4"/>
<feGaussianBlur stdDeviation="2"/>
<feColorMatrix type="matrix" values="0 0 0 0 0 0 0 0 0 0 0 0 0 0 0 0 0 0 0.1 0"/>
<feBlend mode="normal" in2="BackgroundImageFix" result="effect1_dropShadow"/>
<feBlend mode="normal" in="SourceGraphic" in2="effect1_dropShadow" result="shape"/>
</filter>
<filter id="filter3_d" x="657" y="66" width="120" height="108" filterUnits="userSpaceOnUse" color-interpolation-filters="sRGB">
<feFlood flood-opacity="0" result="BackgroundImageFix"/>
<feColorMatrix in="SourceAlpha" type="matrix" values="0 0 0 0 0 0 0 0 0 0 0 0 0 0 0 0 0 0 127 0"/>
<feOffset dy="4"/>
<feGaussianBlur stdDeviation="2"/>
<feColorMatrix type="matrix" values="0 0 0 0 0 0 0 0 0 0 0 0 0 0 0 0 0 0 0.1 0"/>
<feBlend mode="normal" in2="BackgroundImageFix" result="effect1_dropShadow"/>
<feBlend mode="normal" in="SourceGraphic" in2="effect1_dropShadow" result="shape"/>
</filter>
<filter id="filter4_d" x="526" y="66" width="120" height="108" filterUnits="userSpaceOnUse" color-interpolation-filters="sRGB">
<feFlood flood-opacity="0" result="BackgroundImageFix"/>
<feColorMatrix in="SourceAlpha" type="matrix" values="0 0 0 0 0 0 0 0 0 0 0 0 0 0 0 0 0 0 127 0"/>
<feOffset dy="4"/>
<feGaussianBlur stdDeviation="2"/>
<feColorMatrix type="matrix" values="0 0 0 0 0 0 0 0 0 0 0 0 0 0 0 0 0 0 0.1 0"/>
<feBlend mode="normal" in2="BackgroundImageFix" result="effect1_dropShadow"/>
<feBlend mode="normal" in="SourceGraphic" in2="effect1_dropShadow" result="shape"/>
</filter>
<filter id="filter5_d" x="133" y="66" width="120" height="108" filterUnits="userSpaceOnUse" color-interpolation-filters="sRGB">
<feFlood flood-opacity="0" result="BackgroundImageFix"/>
<feColorMatrix in="SourceAlpha" type="matrix" values="0 0 0 0 0 0 0 0 0 0 0 0 0 0 0 0 0 0 127 0"/>
<feOffset dy="4"/>
<feGaussianBlur stdDeviation="2"/>
<feColorMatrix type="matrix" values="0 0 0 0 0 0 0 0 0 0 0 0 0 0 0 0 0 0 0.1 0"/>
<feBlend mode="normal" in2="BackgroundImageFix" result="effect1_dropShadow"/>
<feBlend mode="normal" in="SourceGraphic" in2="effect1_dropShadow" result="shape"/>
</filter>
<filter id="filter6_d" x="264" y="66" width="120" height="108" filterUnits="userSpaceOnUse" color-interpolation-filters="sRGB">
<feFlood flood-opacity="0" result="BackgroundImageFix"/>
<feColorMatrix in="SourceAlpha" type="matrix" values="0 0 0 0 0 0 0 0 0 0 0 0 0 0 0 0 0 0 127 0"/>
<feOffset dy="4"/>
<feGaussianBlur stdDeviation="2"/>
<feColorMatrix type="matrix" values="0 0 0 0 0 0 0 0 0 0 0 0 0 0 0 0 0 0 0.1 0"/>
<feBlend mode="normal" in2="BackgroundImageFix" result="effect1_dropShadow"/>
<feBlend mode="normal" in="SourceGraphic" in2="effect1_dropShadow" result="shape"/>
</filter>
<filter id="filter7_d" x="395" y="66" width="120" height="108" filterUnits="userSpaceOnUse" color-interpolation-filters="sRGB">
<feFlood flood-opacity="0" result="BackgroundImageFix"/>
<feColorMatrix in="SourceAlpha" type="matrix" values="0 0 0 0 0 0 0 0 0 0 0 0 0 0 0 0 0 0 127 0"/>
<feOffset dy="4"/>
<feGaussianBlur stdDeviation="2"/>
<feColorMatrix type="matrix" values="0 0 0 0 0 0 0 0 0 0 0 0 0 0 0 0 0 0 0.1 0"/>
<feBlend mode="normal" in2="BackgroundImageFix" result="effect1_dropShadow"/>
<feBlend mode="normal" in="SourceGraphic" in2="effect1_dropShadow" result="shape"/>
</filter>
<filter id="filter8_d" x="465.032" y="133" width="22.6774" height="22.6774" filterUnits="userSpaceOnUse" color-interpolation-filters="sRGB">
<feFlood flood-opacity="0" result="BackgroundImageFix"/>
<feColorMatrix in="SourceAlpha" type="matrix" values="0 0 0 0 0 0 0 0 0 0 0 0 0 0 0 0 0 0 127 0"/>
<feOffset dy="2"/>
<feGaussianBlur stdDeviation="2"/>
<feColorMatrix type="matrix" values="0 0 0 0 0 0 0 0 0 0 0 0 0 0 0 0 0 0 0.1 0"/>
<feBlend mode="normal" in2="BackgroundImageFix" result="effect1_dropShadow"/>
<feBlend mode="normal" in="SourceGraphic" in2="effect1_dropShadow" result="shape"/>
</filter>
<filter id="filter9_d" x="421" y="135" width="22.6774" height="22.6774" filterUnits="userSpaceOnUse" color-interpolation-filters="sRGB">
<feFlood flood-opacity="0" result="BackgroundImageFix"/>
<feColorMatrix in="SourceAlpha" type="matrix" values="0 0 0 0 0 0 0 0 0 0 0 0 0 0 0 0 0 0 127 0"/>
<feOffset dy="4"/>
<feGaussianBlur stdDeviation="2"/>
<feColorMatrix type="matrix" values="0 0 0 0 0 0 0 0 0 0 0 0 0 0 0 0 0 0 0.1 0"/>
<feBlend mode="normal" in2="BackgroundImageFix" result="effect1_dropShadow"/>
<feBlend mode="normal" in="SourceGraphic" in2="effect1_dropShadow" result="shape"/>
</filter>
<linearGradient id="paint0_linear" x1="193.732" y1="142.028" x2="193.732" y2="86" gradientUnits="userSpaceOnUse">
<stop stop-color="#808080" stop-opacity="0.25"/>
<stop offset="0.54" stop-color="#808080" stop-opacity="0.12"/>
<stop offset="1" stop-color="#808080" stop-opacity="0.1"/>
</linearGradient>
<linearGradient id="paint1_linear" x1="251.888" y1="130.502" x2="251.888" y2="130.495" gradientUnits="userSpaceOnUse">
<stop stop-color="#808080" stop-opacity="0.25"/>
<stop offset="0.54" stop-color="#808080" stop-opacity="0.12"/>
<stop offset="1" stop-color="#808080" stop-opacity="0.1"/>
</linearGradient>
<linearGradient id="paint2_linear" x1="33510" y1="4902.36" x2="33510" y2="1496.32" gradientUnits="userSpaceOnUse">
<stop stop-color="#808080" stop-opacity="0.25"/>
<stop offset="0.54" stop-color="#808080" stop-opacity="0.12"/>
<stop offset="1" stop-color="#808080" stop-opacity="0.1"/>
</linearGradient>
<linearGradient id="paint3_linear" x1="249.276" y1="124.134" x2="249.296" y2="124.134" gradientUnits="userSpaceOnUse">
<stop stop-color="#808080" stop-opacity="0.25"/>
<stop offset="0.54" stop-color="#808080" stop-opacity="0.12"/>
<stop offset="1" stop-color="#808080" stop-opacity="0.1"/>
</linearGradient>
<linearGradient id="paint4_linear" x1="249.329" y1="124.183" x2="249.349" y2="124.183" gradientUnits="userSpaceOnUse">
<stop stop-color="#808080" stop-opacity="0.25"/>
<stop offset="0.54" stop-color="#808080" stop-opacity="0.12"/>
<stop offset="1" stop-color="#808080" stop-opacity="0.1"/>
</linearGradient>
<linearGradient id="paint5_linear" x1="249.329" y1="124.134" x2="249.349" y2="124.134" gradientUnits="userSpaceOnUse">
<stop stop-color="#808080" stop-opacity="0.25"/>
<stop offset="0.54" stop-color="#808080" stop-opacity="0.12"/>
<stop offset="1" stop-color="#808080" stop-opacity="0.1"/>
</linearGradient>
<linearGradient id="paint6_linear" x1="454.859" y1="129.129" x2="454.859" y2="122.565" gradientUnits="userSpaceOnUse">
<stop stop-color="#808080" stop-opacity="0.25"/>
<stop offset="0.54" stop-color="#808080" stop-opacity="0.12"/>
<stop offset="1" stop-color="#808080" stop-opacity="0.1"/>
</linearGradient>
<linearGradient id="paint7_linear" x1="2700.03" y1="440.376" x2="2700.03" y2="88.8123" gradientUnits="userSpaceOnUse">
<stop stop-color="#808080" stop-opacity="0.25"/>
<stop offset="0.54" stop-color="#808080" stop-opacity="0.12"/>
<stop offset="1" stop-color="#808080" stop-opacity="0.1"/>
</linearGradient>
<linearGradient id="paint8_linear" x1="663.704" y1="566.388" x2="663.704" y2="83" gradientUnits="userSpaceOnUse">
<stop stop-color="#808080" stop-opacity="0.25"/>
<stop offset="0.54" stop-color="#808080" stop-opacity="0.12"/>
<stop offset="1" stop-color="#808080" stop-opacity="0.1"/>
</linearGradient>
<linearGradient id="paint9_linear" x1="5571.36" y1="566.388" x2="5571.36" y2="83" gradientUnits="userSpaceOnUse">
<stop stop-color="#808080" stop-opacity="0.25"/>
<stop offset="0.54" stop-color="#808080" stop-opacity="0.12"/>
<stop offset="1" stop-color="#808080" stop-opacity="0.1"/>
</linearGradient>
</defs>
</svg>