<svg width="2316" height="638" viewBox="0 0 2316 638" fill="none" xmlns="http://www.w3.org/2000/svg">
<path d="M642.247 225.868C625.54 209.159 616.57 186.496 615.336 157.879C615.101 150.949 615 140.015 615 125.146C615 110.276 615 99.1073 615.336 92.3454C616.278 63.997 625.17 41.5134 642.012 24.8946C658.853 8.27578 682.4 -0.0223822 712.652 4.53388e-05C733.059 4.53388e-05 750.372 3.71179 764.59 11.1353C777.27 17.3125 788.269 26.4652 796.647 37.8128C803.069 46.1386 807.052 56.085 808.151 66.5425V67.249C808.158 68.1537 807.959 69.0481 807.568 69.8642C807.178 70.6802 806.606 71.3965 805.898 71.9587C804.502 73.1856 802.71 73.8667 800.852 73.8763H781.409C779.723 74.0096 778.047 73.5187 776.7 72.497C775.329 70.9939 774.317 69.1996 773.739 67.249C769.913 56.1637 762.729 46.5455 753.186 39.7304C743.162 32.3069 729.707 28.5839 712.82 28.5615C693.288 28.5615 677.937 33.8993 666.769 44.5748C655.602 55.2503 649.681 71.7569 649.008 94.0947C648.784 100.823 648.672 111.173 648.672 125.146C648.672 138.871 648.672 149.165 649.008 156.163C649.681 178.703 655.736 195.355 666.769 205.986C677.803 216.616 693.276 222.033 712.82 222.033C732.364 222.033 748.342 216.65 760.183 205.817C772.024 194.985 778.011 178.904 778.011 157.206V142.235H724.526C723.447 142.271 722.372 142.069 721.378 141.645C720.384 141.221 719.496 140.584 718.774 139.78C717.268 138.181 716.447 136.055 716.487 133.859V123.396C716.442 121.189 717.263 119.051 718.774 117.442C719.503 116.649 720.394 116.022 721.387 115.604C722.379 115.186 723.45 114.987 724.526 115.02H802.601C803.721 114.965 804.84 115.136 805.892 115.523C806.943 115.911 807.907 116.506 808.723 117.274C809.485 118.095 810.076 119.059 810.463 120.109C810.849 121.16 811.024 122.277 810.977 123.396V156.499C811.343 173.786 807.316 190.883 799.271 206.188C791.577 220.422 779.725 231.97 765.296 239.291C748.975 247.418 730.912 251.426 712.686 250.964C682.434 250.964 658.954 242.599 642.247 225.868Z" fill="#444242"/>
<path d="M870.575 229.461C856.706 215.013 849.282 195.86 848.371 171.969L848 157.017L848.371 142.031C849.294 118.106 856.807 98.9536 870.913 84.5722C885.018 70.1907 904.658 63 929.831 63C955.005 63 974.644 70.1907 988.75 84.5722C1002.86 98.9536 1010.38 118.106 1011.33 142.031C1011.76 147.138 1012 152.111 1012 157.017C1012 161.923 1011.76 166.862 1011.33 171.969C1010.38 195.894 1002.96 215.013 989.087 229.461C975.218 243.91 955.342 251 929.831 251C904.32 251 884.444 243.843 870.575 229.461ZM965.331 210.813C974.06 201.404 978.784 187.885 979.504 170.256C979.706 167.937 979.841 163.535 979.841 157.017C979.841 150.498 979.841 146.096 979.504 143.744C978.795 126.137 974.071 112.596 965.331 103.221C956.591 93.8461 944.747 89.1083 929.831 89.1083C914.916 89.1083 903.072 93.8125 894.332 103.221C885.592 112.629 880.834 126.137 880.193 143.744L879.821 157.017L880.193 170.256C880.867 187.908 885.58 201.427 894.332 210.813C903.083 220.199 914.916 224.892 929.831 224.892C944.747 224.892 956.58 220.199 965.331 210.813Z" fill="#444242"/>
<path d="M640.439 539.735C624.231 522.892 615.542 499.825 614.371 470.534C614.135 464.243 614 454.05 614 439.853C614 425.656 614 414.992 614.371 408.499C615.542 379.164 624.231 356.086 640.439 339.265C656.646 322.444 680.282 314.022 711.347 314C732.146 314 749.761 317.656 764.19 324.967C777.037 331 787.994 340.402 795.887 352.166C803.781 363.93 808.312 377.612 808.997 391.746C809.026 392.707 808.837 393.663 808.446 394.542C808.054 395.421 807.469 396.202 806.735 396.826C805.203 398.074 803.277 398.741 801.299 398.71H783.808C781.794 398.82 779.807 398.212 778.203 396.994C776.549 395.404 775.449 393.33 775.063 391.073C771.078 373.131 763.897 360.571 753.52 353.394C743.143 346.217 729.085 342.607 711.347 342.562C670.828 342.562 649.724 365.113 648.036 410.215C647.8 416.472 647.664 426.161 647.664 439.147C647.664 452.132 647.664 462.057 648.036 468.785C649.657 513.64 670.76 536.068 711.347 536.068C728.837 536.068 742.839 532.468 753.351 525.269C763.864 518.07 771.101 505.634 775.063 487.961C775.449 485.704 776.549 483.629 778.203 482.04C779.795 480.796 781.788 480.174 783.808 480.29H801.299C803.283 480.256 805.214 480.937 806.735 482.208C807.469 482.825 808.053 483.6 808.445 484.473C808.837 485.347 809.026 486.298 808.997 487.254C808.312 501.388 803.781 515.07 795.887 526.834C787.994 538.597 777.037 548 764.19 554.033C749.738 561.367 732.124 565.022 711.347 565C680.282 565 656.646 556.578 640.439 539.735Z" fill="#444242"/>
<path d="M865.571 543.317C851.693 528.839 844.293 509.588 843.371 485.563L843 470.534L843.371 455.437C844.293 431.412 851.806 412.172 865.908 397.717C880.011 383.261 899.657 376.023 924.848 376C950.017 376 969.641 383.239 983.721 397.717C997.801 412.195 1005.32 431.435 1006.29 455.437C1006.76 460.604 1007 465.569 1007 470.534C1007 475.498 1006.76 480.43 1006.29 485.563C1005.35 509.565 997.947 528.817 984.092 543.317C970.237 557.817 950.489 565.045 924.848 565C899.207 565 879.448 557.772 865.571 543.317ZM960.307 524.606C969.045 515.115 973.802 501.572 974.477 483.807C974.679 481.51 974.814 477.052 974.814 470.534C974.814 464.015 974.814 459.557 974.477 457.193C973.768 439.495 969.045 425.884 960.307 416.461C951.569 407.038 939.727 402.276 924.848 402.276C909.97 402.276 898.06 406.971 889.322 416.461C880.584 425.952 875.827 439.495 875.186 457.193L874.815 470.534L875.186 483.807C875.894 501.572 880.584 515.115 889.322 524.606C898.06 534.097 909.936 538.757 924.848 538.757C939.76 538.757 951.569 534.029 960.307 524.606Z" fill="#444242"/>
<path d="M1053.29 558.707C1052.53 557.96 1051.93 557.062 1051.54 556.07C1051.15 555.079 1050.96 554.015 1051.01 552.949V387.593C1050.97 386.527 1051.16 385.466 1051.55 384.475C1051.94 383.484 1052.54 382.584 1053.29 381.83C1054.04 381.076 1054.94 380.484 1055.93 380.091C1056.92 379.699 1057.98 379.513 1059.05 379.546H1073.92C1075.01 379.428 1076.1 379.555 1077.13 379.918C1078.16 380.281 1079.09 380.871 1079.86 381.644C1080.63 382.416 1081.22 383.352 1081.57 384.382C1081.93 385.412 1082.06 386.509 1081.93 387.593V402.913C1088.52 394.641 1096.79 387.869 1106.2 383.047C1116.94 378.039 1128.71 375.64 1140.56 376.044C1162.86 376.044 1180.17 383.204 1192.49 397.526C1204.8 411.847 1210.97 430.747 1211 454.227V552.949C1211.03 554.013 1210.85 555.073 1210.46 556.064C1210.07 557.055 1209.49 557.956 1208.73 558.71C1207.98 559.465 1207.09 560.057 1206.1 560.45C1205.11 560.843 1204.05 561.029 1202.99 560.996H1186.93C1185.87 561.029 1184.81 560.843 1183.82 560.45C1182.83 560.057 1181.93 559.466 1181.17 558.712C1180.42 557.958 1179.83 557.058 1179.44 556.067C1179.04 555.076 1178.86 554.015 1178.89 552.949V456.314C1178.89 439.546 1174.83 426.516 1166.71 417.223C1158.59 407.93 1146.96 403.283 1131.84 403.283C1116.94 403.283 1105.08 407.986 1096.24 417.391C1087.4 426.797 1082.98 439.771 1082.98 456.314V552.949C1083.01 554.009 1082.84 555.066 1082.46 556.056C1082.07 557.045 1081.5 557.947 1080.76 558.707C1080 559.456 1079.1 560.045 1078.11 560.439C1077.12 560.832 1076.06 561.022 1075 560.996H1058.95C1057.9 561.016 1056.86 560.823 1055.89 560.429C1054.92 560.036 1054.03 559.45 1053.29 558.707Z" fill="#444242"/>
<path d="M1282.71 557.183C1273.24 553.127 1264.8 546.971 1258.04 539.18C1252.66 532.424 1249.99 526.795 1250.01 522.291C1249.96 521.257 1250.15 520.225 1250.57 519.28C1250.99 518.335 1251.63 517.503 1252.44 516.853C1253.93 515.644 1255.78 514.966 1257.7 514.928H1272.39C1273.56 514.86 1274.73 515.117 1275.76 515.671C1277.05 516.53 1278.19 517.591 1279.14 518.812C1284.13 525.02 1290.24 530.233 1297.16 534.181C1305.45 538.295 1314.65 540.225 1323.89 539.788C1334.47 540.307 1344.98 537.887 1354.27 532.796C1357.83 530.774 1360.77 527.818 1362.77 524.247C1364.78 520.675 1365.77 516.624 1365.64 512.53C1365.91 507.411 1364.14 502.395 1360.72 498.58C1356.09 494.225 1350.54 490.979 1344.48 489.088C1333.43 485.347 1322.16 482.312 1310.73 480.002C1290.48 475.498 1276.13 469.081 1267.69 460.749C1263.5 456.467 1260.22 451.375 1258.05 445.782C1255.89 440.19 1254.89 434.215 1255.11 428.222C1255.19 419.298 1257.86 410.591 1262.8 403.159C1268.49 394.638 1276.42 387.857 1285.72 383.568C1297.05 378.286 1309.44 375.708 1321.93 376.036C1334.77 375.667 1347.53 378.147 1359.3 383.298C1368.3 387.172 1376.31 393.039 1382.72 400.457C1387.99 406.964 1390.62 412.448 1390.62 416.906C1390.64 417.894 1390.45 418.874 1390.05 419.779C1389.66 420.683 1389.07 421.49 1388.32 422.142C1386.87 423.517 1384.93 424.268 1382.92 424.236H1369.63C1368.21 424.338 1366.8 424.029 1365.56 423.346C1364.32 422.662 1363.31 421.634 1362.64 420.385C1358.66 415.994 1355.35 412.515 1352.68 410.049C1349.22 407.218 1345.24 405.085 1340.97 403.767C1334.74 401.873 1328.24 400.984 1321.73 401.132C1310.28 401.132 1301.54 403.53 1295.51 408.327C1292.57 410.544 1290.2 413.435 1288.61 416.755C1287.02 420.076 1286.25 423.73 1286.36 427.411C1286.24 431.871 1287.6 436.245 1290.24 439.841C1294.24 444.195 1299.3 447.441 1304.92 449.265C1315.38 453.12 1326.14 456.103 1337.09 458.182C1359.28 462.866 1374.96 469.52 1384.14 478.144C1388.68 482.381 1392.27 487.542 1394.66 493.281C1397.04 499.019 1398.18 505.202 1397.98 511.415C1398.06 521.188 1395.06 530.737 1389.4 538.707C1382.93 547.464 1374.05 554.153 1363.85 557.96C1350.94 562.917 1337.18 565.293 1323.35 564.952C1309.4 565.398 1295.52 562.745 1282.71 557.183Z" fill="#444242"/>
<path d="M1455.06 543.468C1443 529.17 1436.98 510.147 1437 486.399V388.053C1436.97 386.99 1437.15 385.933 1437.54 384.943C1437.93 383.954 1438.51 383.053 1439.25 382.295C1440 381.538 1440.89 380.943 1441.88 380.55C1442.86 380.156 1443.92 379.971 1444.98 380.006H1460.96C1462.02 379.964 1463.08 380.147 1464.07 380.541C1465.05 380.935 1465.95 381.533 1466.69 382.295C1467.44 383.047 1468.03 383.946 1468.43 384.936C1468.82 385.926 1469 386.987 1468.97 388.053V484.75C1468.97 520.102 1484.25 537.778 1514.81 537.778C1529.58 537.778 1541.31 533.064 1550.03 523.637C1558.74 514.21 1563.08 501.247 1563.06 484.75V388.12C1563.02 387.056 1563.2 385.996 1563.59 385.005C1563.98 384.014 1564.56 383.113 1565.31 382.359C1566.06 381.604 1566.95 381.012 1567.94 380.619C1568.92 380.226 1569.98 380.04 1571.04 380.073H1586.99C1588.05 380.035 1589.11 380.218 1590.09 380.609C1591.08 381 1591.98 381.591 1592.73 382.346C1593.48 383.101 1594.07 384.003 1594.46 384.997C1594.85 385.99 1595.03 387.053 1594.99 388.12V553.468C1595.03 554.531 1594.86 555.591 1594.47 556.581C1594.08 557.572 1593.5 558.472 1592.75 559.225C1592 559.982 1591.09 560.575 1590.1 560.969C1589.11 561.363 1588.05 561.548 1586.99 561.515H1572.07C1571.02 561.548 1569.96 561.362 1568.98 560.969C1567.99 560.575 1567.1 559.983 1566.35 559.229C1565.6 558.474 1565.02 557.574 1564.63 556.583C1564.24 555.592 1564.06 554.532 1564.1 553.468V537.778C1557.96 546.382 1549.86 553.389 1540.48 558.215C1529.69 563.076 1517.94 565.38 1506.13 564.949C1484.13 564.926 1467.1 557.766 1455.06 543.468Z" fill="#444242"/>
<path d="M1650.27 558.713C1649.52 557.968 1648.93 557.073 1648.54 556.084C1648.15 555.096 1647.97 554.036 1648.02 552.973V321.995C1647.95 320.904 1648.11 319.81 1648.5 318.79C1648.89 317.77 1649.5 316.848 1650.27 316.087C1651.82 314.671 1653.86 313.924 1655.95 314.006H1671.06C1672.11 313.975 1673.15 314.158 1674.12 314.544C1675.1 314.931 1675.99 315.513 1676.74 316.255C1677.48 317.003 1678.07 317.899 1678.46 318.887C1678.85 319.875 1679.03 320.933 1678.99 321.995V552.973C1679.04 554.036 1678.86 555.096 1678.47 556.084C1678.08 557.073 1677.49 557.968 1676.74 558.713C1676 559.466 1675.11 560.058 1674.13 560.45C1673.16 560.843 1672.11 561.028 1671.06 560.995H1655.95C1654.9 561.032 1653.85 560.849 1652.88 560.456C1651.9 560.063 1651.01 559.469 1650.27 558.713Z" fill="#444242"/>
<path d="M1747.32 500.179V406.924H1719.68C1718.65 406.995 1717.62 406.844 1716.65 406.481C1715.69 406.119 1714.81 405.554 1714.08 404.824C1713.36 404.094 1712.8 403.217 1712.44 402.253C1712.08 401.288 1711.94 400.259 1712.02 399.234V388.152C1711.93 386.045 1712.67 383.986 1714.08 382.41C1714.79 381.647 1715.66 381.047 1716.63 380.653C1717.59 380.259 1718.64 380.079 1719.68 380.127H1747.32V321.998C1747.24 319.886 1747.99 317.826 1749.41 316.256C1750.13 315.507 1751 314.92 1751.97 314.532C1752.93 314.144 1753.97 313.965 1755.01 314.006H1770.4C1771.46 313.976 1772.52 314.16 1773.51 314.546C1774.5 314.933 1775.41 315.514 1776.17 316.256C1776.92 317.01 1777.5 317.909 1777.89 318.896C1778.28 319.883 1778.46 320.938 1778.43 321.998V380.127H1821.79C1822.86 380.094 1823.92 380.279 1824.91 380.671C1825.9 381.063 1826.8 381.654 1827.55 382.406C1828.31 383.159 1828.9 384.057 1829.29 385.045C1829.68 386.034 1829.86 387.091 1829.82 388.152V399.234C1829.87 400.271 1829.7 401.307 1829.31 402.269C1828.92 403.232 1828.32 404.098 1827.56 404.809C1825.99 406.238 1823.92 406.998 1821.79 406.924H1778.43V497.593C1778.43 509.413 1780.35 518.379 1784.2 524.458C1788.05 530.536 1794.66 533.491 1803.97 533.491H1825.27C1826.31 533.439 1827.35 533.616 1828.32 534.011C1829.29 534.406 1830.16 535.008 1830.87 535.774C1831.58 536.545 1832.14 537.449 1832.51 538.434C1832.87 539.42 1833.04 540.467 1832.99 541.517V552.968C1833.07 555.086 1832.31 557.151 1830.87 558.71C1830.15 559.47 1829.28 560.067 1828.32 560.461C1827.35 560.855 1826.31 561.037 1825.27 560.994H1801.64C1765.43 561.061 1747.32 540.789 1747.32 500.179Z" fill="#444242"/>
<path d="M1866.28 343.148C1865.53 342.4 1864.93 341.502 1864.54 340.511C1864.15 339.52 1863.97 338.458 1864.01 337.392V319.384C1863.98 318.294 1864.17 317.21 1864.56 316.193C1864.95 315.177 1865.53 314.248 1866.28 313.459C1867.01 312.662 1867.89 312.029 1868.88 311.605C1869.87 311.182 1870.94 310.976 1872.01 311.002H1892.49C1893.6 310.98 1894.7 311.18 1895.73 311.591C1896.76 312.002 1897.7 312.616 1898.49 313.397C1899.29 314.177 1899.92 315.109 1900.35 316.137C1900.78 317.165 1901 318.269 1901 319.384V337.526C1901.03 338.606 1900.82 339.68 1900.4 340.674C1899.98 341.668 1899.35 342.557 1898.55 343.282C1896.96 344.793 1894.84 345.615 1892.65 345.571H1872.18C1871.08 345.611 1869.99 345.415 1868.97 344.997C1867.96 344.579 1867.04 343.949 1866.28 343.148ZM1869.06 558.572C1868.31 557.825 1867.71 556.928 1867.32 555.936C1866.93 554.945 1866.74 553.882 1866.79 552.816V387.646C1866.75 386.581 1866.94 385.52 1867.33 384.529C1867.72 383.539 1868.31 382.639 1869.06 381.885C1869.81 381.131 1870.71 380.54 1871.69 380.147C1872.68 379.754 1873.73 379.569 1874.79 379.601H1890.04C1891.1 379.56 1892.16 379.742 1893.15 380.136C1894.13 380.531 1895.03 381.128 1895.77 381.89C1896.52 382.642 1897.11 383.54 1897.5 384.53C1897.9 385.521 1898.08 386.581 1898.05 387.646V552.951C1898.08 554.016 1897.9 555.077 1897.5 556.067C1897.11 557.058 1896.53 557.958 1895.78 558.712C1895.02 559.465 1894.13 560.057 1893.14 560.449C1892.16 560.842 1891.1 561.028 1890.04 560.995H1874.79C1873.73 561.033 1872.68 560.848 1871.69 560.454C1870.7 560.06 1869.81 559.465 1869.06 558.706V558.572Z" fill="#444242"/>
<path d="M1952.26 558.706C1951.51 557.953 1950.92 557.053 1950.53 556.063C1950.15 555.072 1949.97 554.012 1950.01 552.949V387.593C1949.97 386.526 1950.15 385.463 1950.54 384.469C1950.93 383.476 1951.52 382.574 1952.28 381.819C1953.03 381.064 1953.93 380.472 1954.92 380.081C1955.92 379.69 1956.98 379.508 1958.05 379.546H1973.01C1974.09 379.48 1975.17 379.631 1976.19 379.99C1977.2 380.348 1978.14 380.907 1978.94 381.633C1979.66 382.439 1980.22 383.38 1980.58 384.403C1980.93 385.426 1981.09 386.511 1981.02 387.593V402.913C1987.59 394.643 1995.85 387.87 2005.24 383.047C2015.98 378.039 2027.75 375.64 2039.59 376.044C2061.88 376.044 2079.19 383.204 2091.53 397.526C2103.86 411.847 2110.02 430.747 2109.99 454.227V552.949C2110.03 554.012 2109.85 555.072 2109.47 556.063C2109.08 557.053 2108.49 557.953 2107.74 558.706C2106.99 559.461 2106.09 560.053 2105.1 560.447C2104.11 560.84 2103.05 561.027 2101.99 560.996H2085.98C2084.91 561.029 2083.85 560.843 2082.86 560.45C2081.87 560.057 2080.97 559.466 2080.22 558.712C2079.47 557.958 2078.87 557.058 2078.48 556.067C2078.09 555.076 2077.9 554.014 2077.94 552.949V456.314C2077.94 439.546 2073.88 426.516 2065.76 417.223C2057.64 407.93 2046.01 403.283 2030.87 403.283C2016.01 403.283 2004.15 407.986 1995.32 417.391C1986.48 426.796 1982.06 439.771 1982.06 456.314V552.949C1982.1 554.012 1981.92 555.072 1981.54 556.063C1981.15 557.053 1980.56 557.953 1979.81 558.706C1979.06 559.461 1978.16 560.053 1977.17 560.447C1976.18 560.84 1975.12 561.027 1974.06 560.996H1958.05C1956.98 561.03 1955.91 560.844 1954.92 560.451C1953.92 560.057 1953.02 559.463 1952.26 558.706Z" fill="#444242"/>
<path d="M2188 628.127C2177.82 623.041 2169.24 615.266 2163.19 605.65C2158.99 599.162 2156.51 591.719 2155.99 584.016C2155.98 582.988 2156.2 581.971 2156.63 581.035C2157.05 580.099 2157.68 579.265 2158.46 578.591C2159.95 577.135 2161.95 576.323 2164.04 576.333H2179.49C2181.36 576.256 2183.21 576.814 2184.73 577.917C2186.4 579.459 2187.58 581.466 2188.11 583.679C2194.62 602.28 2209.44 611.592 2232.56 611.615C2250.08 611.615 2263.05 607.885 2271.48 600.427C2279.9 592.969 2284.11 579.815 2284.09 560.967V536.839C2270.56 554.093 2251.64 562.708 2227.32 562.686C2202.53 562.686 2184.03 554.823 2171.81 539.097C2159.6 523.371 2153.1 503.355 2152.34 479.048L2152 469.242L2152.34 459.806C2153.06 435.836 2159.55 415.876 2171.81 399.925C2184.07 383.975 2202.58 376 2227.32 376C2251.87 376 2271.02 384.986 2284.79 402.958V387.963C2284.74 385.766 2285.55 383.635 2287.06 382.032C2287.79 381.23 2288.68 380.594 2289.68 380.17C2290.68 379.745 2291.76 379.541 2292.84 379.572H2307.92C2309 379.541 2310.08 379.745 2311.08 380.17C2312.08 380.594 2312.97 381.23 2313.7 382.032C2315.21 383.639 2316.03 385.764 2316 387.963V557.294C2316 611.075 2288.78 637.978 2234.35 638C2215.11 637.955 2199.66 634.664 2188 628.127ZM2270.83 519.721C2279.29 508.72 2284.02 495.328 2284.36 481.474C2284.56 479.385 2284.73 475.274 2284.73 469.242C2284.73 463.21 2284.56 459.469 2284.36 457.38C2284.03 443.525 2279.29 430.131 2270.83 419.133C2262.54 408.552 2250.22 403.261 2233.88 403.261C2216.98 403.261 2204.84 408.552 2197.27 419.133C2189.7 429.714 2185.54 443.395 2184.83 460.177L2184.45 469.242L2184.83 478.677C2185.54 495.526 2189.66 509.005 2197.27 519.721C2204.87 530.437 2217.08 535.592 2233.88 535.592C2250.68 535.592 2262.55 530.302 2270.83 519.721Z" fill="#444242"/>
<path d="M421 148.774C421 162.772 420.361 176.444 419.083 189.791C415.965 220.615 409.469 251.002 399.71 280.405C391.483 305.245 380.838 329.216 367.927 351.974C338.137 405.471 296.863 451.696 247.075 487.32C197.287 522.945 140.224 547.084 79.993 558C34.4124 492.965 8.70567 416.08 6 336.698C16.09 337.64 26.6844 337.976 37.1443 337.976C97.4874 337.991 156.962 323.594 210.624 295.984C225.115 288.501 239.123 280.118 252.565 270.882C284.003 249.027 311.964 222.551 335.504 192.348C343.407 182.276 350.729 171.761 357.433 160.854C380.938 124.197 397.63 83.5937 406.706 41C410.479 54.7013 413.455 68.61 415.619 82.6561C419.168 104.517 420.968 126.627 421 148.774Z" fill="url(#paint0_linear)"/>
<path d="M407 41.3917C397.923 84.0586 381.228 124.731 357.72 161.451C351.014 172.377 343.692 182.911 335.788 193C324.946 181.435 313.373 170.582 301.14 160.508C226.331 97.8876 131.933 63.6107 34.4551 63.6712C26.2137 63.6712 17.9387 64.0082 10 64.6486C51.3761 38.0491 97.2648 19.2684 145.394 9.23647C233.224 -9.61444 324.784 0.5557 406.361 38.2234C406.734 39.2406 406.95 40.3091 407 41.3917Z" fill="#5ED4F7"/>
<path d="M74 284C114.869 284 148 250.869 148 210C148 169.131 114.869 136 74 136C33.1309 136 0 169.131 0 210C0 250.869 33.1309 284 74 284Z" fill="url(#paint1_linear)"/>
<defs>
<linearGradient id="paint0_linear" x1="213.5" y1="41" x2="213.5" y2="558" gradientUnits="userSpaceOnUse">
<stop stop-color="#5ED4F7"/>
<stop offset="1" stop-color="#7C33FF"/>
</linearGradient>
<linearGradient id="paint1_linear" x1="74" y1="136" x2="74" y2="284" gradientUnits="userSpaceOnUse">
<stop stop-color="#5ED4F7"/>
<stop offset="1" stop-color="#7C33FF"/>
</linearGradient>
</defs>
</svg>